<svg width="30" height="31" viewBox="0 0 30 31" fill="none" xmlns="http://www.w3.org/2000/svg">
<path d="M0.445812 27.7739C-0.127771 28.3475 -0.127771 29.2775 0.445812 29.8511C1.01939 30.4246 1.94936 30.4246 2.52294 29.8511L0.445812 27.7739ZM29.3906 2.375C29.3906 1.56383 28.733 0.90625 27.9219 0.90625H14.7031C13.892 0.90625 13.2344 1.56383 13.2344 2.375C13.2344 3.18617 13.892 3.84375 14.7031 3.84375H26.4531V15.5938C26.4531 16.4049 27.1107 17.0625 27.9219 17.0625C28.733 17.0625 29.3906 16.4049 29.3906 15.5938V2.375ZM2.52294 29.8511L28.9604 3.41356L26.8833 1.33644L0.445812 27.7739L2.52294 29.8511Z" fill="white"/>
</svg>
