<svg width="61" height="61" viewBox="0 0 61 61" fill="none" xmlns="http://www.w3.org/2000/svg">
<path d="M0.867036 57.4834C0.0859878 58.2644 0.0859878 59.5308 0.867036 60.3118C1.64808 61.0929 2.91442 61.0929 3.69546 60.3118L0.867036 57.4834ZM60.8966 2.28223C60.8966 1.17766 60.0012 0.282227 58.8966 0.282227H40.8966C39.7921 0.282227 38.8966 1.17766 38.8966 2.28223C38.8966 3.3868 39.7921 4.28223 40.8966 4.28223H56.8966V20.2822C56.8966 21.3868 57.7921 22.2822 58.8966 22.2822C60.0012 22.2822 60.8966 21.3868 60.8966 20.2822V2.28223ZM3.69546 60.3118L60.3108 3.69644L57.4824 0.868013L0.867036 57.4834L3.69546 60.3118Z" fill="white"/>
</svg>
