<svg width="55" height="55" viewBox="0 0 55 55" fill="none" xmlns="http://www.w3.org/2000/svg">
<g clip-path="url(#clip0_59_2277)">
<path d="M4.46774 29.3707C4.49514 29.3769 4.52412 29.373 4.55074 29.3582C4.60712 29.3268 4.62748 29.2548 4.59616 29.1984C4.28999 28.6511 4.13495 28.6205 3.72621 28.3285C3.67296 28.2909 3.59936 28.3042 3.56256 28.3574C3.52497 28.4107 3.54141 28.4796 3.59153 28.5211C3.8742 28.7537 4.10206 28.7967 4.391 29.3127C4.40823 29.3433 4.43642 29.3629 4.46774 29.3699V29.3707Z" fill="white"/>
<path d="M1.89564 26.0005C1.84709 26.0593 1.81186 26.1681 1.78993 26.2409C1.71946 26.4774 1.51822 26.8603 1.83613 27.5752C2.12429 28.2228 2.46099 28.478 2.8987 28.6072C3.33642 28.7372 3.70287 28.6581 3.70601 28.435C3.71384 27.8563 3.69583 27.5196 3.01694 27.0576C2.79456 26.9065 2.45942 26.7765 2.23313 26.6316C2.0452 26.5111 1.999 26.2996 2.01936 26.1055C2.03659 25.9426 1.98334 25.894 1.89486 25.999L1.89564 26.0005Z" fill="white"/>
<path d="M45.5719 34.4345C45.5445 34.3914 45.561 34.3413 45.5837 34.2928C45.9188 33.5779 46.4082 33.22 46.9007 33.3547C46.9634 33.3719 46.9963 33.4408 46.9767 33.5027C46.9571 33.5645 46.8937 33.5841 46.8287 33.5786C46.4489 33.5442 46.1373 33.765 45.7575 34.4509C45.7262 34.5073 45.6393 34.5026 45.5915 34.4588C45.5837 34.4517 45.5766 34.4431 45.5711 34.4345H45.5719Z" fill="#6FA486"/>
<path d="M46.2128 33.6061C46.1846 33.5614 46.1642 33.5403 46.2034 33.5019C46.4704 33.2428 46.2856 32.9452 46.2785 32.9335C46.2449 32.8786 46.2621 32.8058 46.3169 32.7722C46.3717 32.7385 46.443 32.7541 46.4774 32.8082C46.573 32.9601 46.6779 33.3258 46.3968 33.6233C46.3521 33.6703 46.2778 33.6726 46.2308 33.628C46.2237 33.621 46.2175 33.6139 46.2128 33.6061Z" fill="#6FA486"/>
<path d="M49.8255 32.7345C49.7832 32.6711 49.7252 32.6202 49.6618 32.5787C49.4551 32.4448 49.0377 32.235 48.3189 32.3211C47.615 32.4049 47.1264 32.6977 46.8789 33.0814C46.6315 33.4651 46.7254 33.5458 46.9142 33.6656C47.0598 33.758 47.8248 34.1033 48.6862 33.592C48.9172 33.4549 49.1082 33.2607 49.2609 33.0391C49.3494 32.9107 49.4778 32.7745 49.6109 32.8011C49.7714 32.8332 49.9014 32.8481 49.8247 32.7345H49.8255Z" fill="#6FA486"/>
<path d="M46.391 30.1208C46.4638 30.1443 46.5288 30.185 46.586 30.2351C46.7716 30.3972 47.0879 30.741 47.203 31.4559C47.3158 32.1559 47.1701 32.4049 46.8694 32.7479C46.5688 33.0908 46.3096 33.0517 46.1882 32.8646C45.8734 32.3799 45.6244 31.9813 45.9525 31.2288C46.0598 30.9822 46.0825 30.9555 46.254 30.748C46.3526 30.6274 46.449 30.4669 46.3863 30.3455C46.3119 30.1999 46.261 30.0793 46.391 30.1216V30.1208Z" fill="#6FA486"/>
<path d="M47.5953 22.3038C46.9555 24.3992 45.9454 27.7506 45.2454 30.0778C45.1326 29.9102 44.9878 29.7739 44.8132 29.6737C44.3825 29.4271 43.8359 29.4631 43.3865 29.7661C43.1915 29.8977 43.0044 30.0684 42.8321 30.2719C42.3505 30.8389 42.0209 31.3705 41.8275 31.9046C41.8102 31.9281 41.7946 31.9523 41.7844 31.9813C41.7797 31.9938 41.3161 33.2044 40.2136 34.0336C39.6483 34.4588 39.1205 34.6412 38.8684 34.498C38.6429 34.3703 38.5544 33.9224 38.6241 33.2694C38.7251 32.3266 39.4651 30.9446 39.8174 30.499C40.3045 29.882 40.6654 29.7857 40.7555 29.8358C40.8213 29.8726 40.887 30.1059 40.7289 30.5836C40.3789 31.636 39.5402 32.4801 39.1409 32.8387C38.9819 32.9812 38.8848 33.1817 38.8786 33.3947C38.8739 33.5356 38.8825 33.6875 38.9115 33.8371C38.9428 33.8449 40.7837 32.3987 41.3161 30.8036C41.598 29.9579 41.3913 29.4748 41.0648 29.29C40.5918 29.0238 39.9427 29.3307 39.3273 30.1106C38.9913 30.5366 38.4009 31.5984 38.1308 32.5662C37.8716 33.0118 37.4464 33.6123 36.8317 34.0751C36.2664 34.5003 35.7386 34.6827 35.4865 34.5395C35.261 34.4118 35.1725 33.9639 35.2422 33.3109C35.3432 32.3681 36.0832 30.9861 36.4355 30.5405C36.9226 29.9235 37.2835 29.8272 37.3736 29.8773C37.4394 29.9141 37.5051 30.1474 37.347 30.6251C36.9844 31.7151 36.098 32.5819 35.7175 32.917C35.5977 33.0219 35.5233 33.1692 35.5092 33.3281C35.4943 33.5004 35.492 33.6852 35.5288 33.8794C35.5601 33.8872 37.401 32.4409 37.9335 30.8459C38.2153 30.0002 38.0086 29.5171 37.6821 29.3323C37.2092 29.0661 36.56 29.373 35.9446 30.1529C35.5319 30.6752 34.3715 32.7385 34.6948 34.4549C34.7896 34.7446 34.9501 34.956 35.178 35.0844C35.3315 35.1714 35.5061 35.2144 35.6987 35.2144C36.1294 35.2144 36.6477 34.9975 37.2092 34.5755C37.5075 34.3507 37.7635 34.1033 37.9812 33.8559C37.9938 34.1902 38.0666 34.7423 38.5614 35.0422C38.7126 35.1338 38.8895 35.1721 39.0822 35.1721C39.5128 35.1721 40.0312 34.9552 40.5926 34.5332C41.0288 34.2051 41.3749 33.8277 41.6419 33.4737C41.6528 33.5818 41.6669 33.6914 41.6873 33.8026L41.6904 33.8175C41.8705 34.5982 42.2855 35.0743 42.8282 35.1236C42.8603 35.1267 42.8924 35.1283 42.9253 35.1283C43.3231 35.1283 43.7224 34.9043 44.1029 34.4784C44.0661 34.3139 44.0701 34.1182 44.139 33.8848C44.1515 33.8433 44.1946 33.8198 44.2361 33.8316C44.2776 33.8441 44.3011 33.8872 44.2893 33.9287C44.2376 34.1057 44.2275 34.256 44.247 34.3868C44.2705 34.4799 44.3042 34.5676 44.3504 34.6475C44.4827 34.8754 44.6973 35.0163 44.9705 35.0563C45.0136 35.0625 45.0559 35.0657 45.0966 35.0657C45.5735 35.0657 45.8875 34.6577 46.0112 34.3844C46.077 34.2396 46.0355 34.0626 45.9008 33.9772C45.7348 33.8723 45.521 33.9428 45.4451 34.1158C45.4435 34.119 45.283 34.469 45.0614 34.4369C44.9572 34.422 44.9181 34.3781 44.8922 34.3327C44.7278 34.0508 44.8915 33.3132 45.0598 32.8794C45.0598 32.8779 45.0606 32.8755 45.0614 32.8739L45.0676 32.8559C45.1021 32.7416 48.5114 21.3869 48.7792 20.618C49.2702 19.2093 50.1299 18.3754 50.9686 18.4936C51.3303 18.5445 51.62 18.7739 51.7845 19.1396C52.0225 19.6674 51.9309 20.3533 51.5511 20.9343C50.7117 22.2161 49.6632 22.0658 48.9421 21.9538L48.762 21.928C48.697 21.9186 48.6359 21.9585 48.6179 22.0219L48.5208 22.3665C48.4997 22.4401 48.5466 22.516 48.6226 22.5301L48.8465 22.5724C49.6343 22.6946 50.9826 22.8942 52.075 21.2788C52.5902 20.5162 52.6873 19.6141 52.3569 18.882C52.1039 18.3213 51.6302 17.9541 51.057 17.8735C49.8895 17.709 48.7917 18.6815 48.1888 20.412C48.1395 20.5522 47.993 21.0244 47.784 21.7048L47.6 22.3054L47.5953 22.3038ZM44.8962 31.2359C44.8962 31.2359 44.8962 31.2374 44.8962 31.239C44.6675 32.0009 44.5101 32.5247 44.4702 32.6571C43.8555 34.0681 43.2314 34.5308 42.8822 34.5003C42.6309 34.4776 42.4132 34.1722 42.2996 33.6844C42.1078 32.6179 42.4006 31.7464 43.309 30.6776C43.4452 30.517 43.5893 30.3855 43.7365 30.286C43.9902 30.1146 44.2768 30.0895 44.5015 30.2179C44.7826 30.3784 44.9259 30.7496 44.8954 31.2366L44.8962 31.2359Z" fill="#6FA486"/>
<path d="M41.3193 17.3942C39.6358 17.2705 38.1684 18.9986 36.8365 22.6757C36.8349 22.6804 36.8333 22.6851 36.8318 22.6898L33.3324 34.032C33.0764 34.8104 32.5016 35.0641 32.0451 34.9701C31.7812 34.9161 31.4954 34.7234 31.3991 34.3531C31.3694 34.238 31.1901 33.5982 31.6129 31.6532C31.7162 31.1787 33.056 26.3356 33.056 26.3356C33.1022 26.1688 33.0051 25.9966 32.8383 25.9496C32.6723 25.9034 32.4993 26.0005 32.4523 26.1673L30.3882 33.5771C30.2128 34.2403 29.8401 34.7078 29.3906 34.8291C29.1322 34.8988 28.8832 34.8385 28.7086 34.6647C28.4361 34.393 28.3727 33.8919 28.5332 33.2936L31.4782 22.7251C31.8329 22.8261 32.2127 22.8903 32.6073 22.8903C34.0528 22.8903 35.7011 22.0376 37.0479 19.0597C37.5725 17.9 37.5741 16.8625 37.0534 16.2134C36.6564 15.7185 36.0143 15.5204 35.2916 15.6715C33.9839 15.944 32.2636 17.4294 31.3568 20.7761L31.147 21.5372C31.1329 21.5873 31.1572 21.6406 31.2041 21.6625C31.3412 21.7275 31.4704 21.7792 31.6043 21.8168C31.6622 21.8332 31.7225 21.8003 31.739 21.7424L31.9606 20.9437C32.7945 17.8632 34.3449 16.5086 35.4192 16.2847C35.9031 16.1836 36.3197 16.3003 36.564 16.6049C36.932 17.0638 36.8999 17.864 36.4763 18.8013C35.1663 21.697 33.4483 22.7838 31.3694 22.0321C29.5308 21.3673 28.0548 19.5006 28.0344 19.4747C27.9279 19.3385 27.7314 19.3142 27.5952 19.4199C27.4589 19.5256 27.4346 19.7229 27.5404 19.8592C27.6022 19.9383 29.0054 21.7181 30.8855 22.5129L27.928 33.1268C27.7071 33.9506 27.8301 34.6718 28.2654 35.1063C28.5113 35.3514 28.8378 35.4822 29.1831 35.4822C29.3053 35.4822 29.4298 35.4657 29.5535 35.4321C29.9834 35.3162 30.3593 35.0116 30.6349 34.5754C30.5957 34.3813 30.5957 34.1597 30.6576 33.9044C30.6678 33.8621 30.7101 33.8363 30.7523 33.8464C30.7946 33.8566 30.8205 33.8989 30.8103 33.9412C30.7719 34.0994 30.761 34.2419 30.768 34.3726C30.8768 34.9834 31.3059 35.454 31.9183 35.5801C32.0154 35.6004 32.1164 35.6106 32.2205 35.6106C32.8689 35.6106 33.6041 35.205 33.9291 34.2192L37.4284 22.8785C38.6335 19.553 39.9294 17.9173 41.2739 18.0151C41.447 18.0292 41.5965 17.8985 41.609 17.7254C41.6216 17.5532 41.4924 17.4028 41.3193 17.3903V17.3942Z" fill="#6FA486"/>
<path d="M24.2113 28.229C24.2716 27.5987 24.1526 27.1414 23.9568 26.8564C22.4432 24.6537 19.5765 26.071 18.4615 31.3791C18.1984 32.6296 17.4185 33.7228 16.3011 34.3429C15.5807 34.743 14.7875 34.9161 14.1079 34.552C12.2129 33.5348 13.4877 26.3231 14.3616 24.328C14.4297 24.1729 14.3467 23.9913 14.1901 23.9263C14.0538 23.8691 13.8636 23.909 13.7798 24.0954C13.6404 24.4063 11.8057 29.1138 10.5466 30.8161C10.5122 30.8623 10.4394 30.8451 10.43 30.7887C10.2358 29.6714 10.1175 24.743 11.3555 19.7966L11.4487 19.5147C11.4487 19.5147 11.4495 19.5123 11.4503 19.5108C12.3507 16.7991 14.1196 15.9676 15.0326 16.2604C15.5408 16.4233 15.724 16.9103 15.522 17.5634C14.9105 19.539 12.4979 19.1639 12.3883 19.1459C12.3781 19.1443 12.1518 19.1146 12.014 19.0965C11.9498 19.0879 11.888 19.1239 11.8645 19.1842C11.8222 19.2907 11.7909 19.4011 11.7556 19.5249C11.7321 19.6071 11.787 19.6909 11.8715 19.7034C12.043 19.7284 12.2928 19.7645 12.3022 19.766C13.364 19.9399 15.5048 19.741 16.1218 17.7482C16.471 16.619 15.9237 15.8877 15.2252 15.6637C14.0656 15.291 12.0336 16.0145 10.9663 19.0073C5.42171 18.9431 3.8948 22.1707 3.53696 23.6412C3.11334 25.3835 4.17043 26.4883 5.18054 27.2581C5.23691 27.3011 5.30347 27.3223 5.36925 27.3223C5.47339 27.3223 5.57675 27.2706 5.63783 27.1727C5.72318 27.0341 5.67933 26.8517 5.55091 26.7522C4.73578 26.1219 3.79222 25.2128 4.13911 23.8143C4.45937 22.5246 6.00193 19.6329 10.7463 19.6619L6.99012 31.0605C5.98706 34.1832 4.38185 35.2841 3.30361 35.281C3.29813 35.281 3.29187 35.281 3.28639 35.281C2.52372 35.27 1.91765 34.743 1.66395 33.87C1.32803 32.7126 1.67413 31.1732 2.46891 30.2884C2.8197 29.8977 3.41167 29.4631 4.2456 29.6118C4.41552 29.6424 4.57839 29.5288 4.60892 29.3581C4.63946 29.1882 4.52592 29.0254 4.35522 28.9948C3.48449 28.8398 2.649 29.1506 2.003 29.8695C1.06023 30.9187 0.664022 32.6751 1.0618 34.0446C1.39146 35.1792 2.24026 35.8925 3.27699 35.9074C3.28482 35.9074 3.29344 35.9074 3.30127 35.9074C4.65277 35.9113 6.48037 34.6929 7.58522 31.2546L10.0972 23.624C9.70723 25.4328 9.5381 30.8389 9.95154 31.6469C10.0134 31.7691 10.1324 31.8513 10.2687 31.8678C10.4057 31.8842 10.5419 31.8317 10.6328 31.7268C11.1308 31.1505 12.3163 29.0105 12.7587 28.2509C12.4956 29.5124 12.4377 32.3 12.6898 33.4142C12.6726 33.4205 12.8832 34.0227 12.8832 34.0227C13.0782 34.4784 13.3749 34.8472 13.797 35.0962C15.2628 35.9606 17.3606 34.6334 18.3574 33.4322C18.5054 34.3687 18.9564 35.0038 19.5499 35.2473C19.723 35.3186 19.9156 35.3585 20.1231 35.3585C21.0753 35.3616 22.3406 34.5402 23.4165 32.1309C23.4173 32.1285 23.5434 31.8654 23.7775 31.8153C23.9639 31.7754 24.0758 31.5773 24.0022 31.3909C23.9451 31.2476 23.7853 31.1709 23.635 31.2053C23.1017 31.3259 22.8684 31.8208 22.8441 31.8764C21.7894 34.2388 20.4997 35.0805 19.788 34.6671C17.2783 33.2091 21.0768 23.6812 23.5191 27.345C23.6467 27.536 23.6726 27.832 23.6334 28.0513C23.5324 28.6111 24.1745 28.6503 24.2144 28.2314L24.2113 28.229Z" fill="white"/>
<path d="M25.8755 29.3041C25.8865 29.3213 25.8998 29.3378 25.9147 29.3519C25.9288 29.366 25.9444 29.3793 25.9616 29.391C25.9789 29.402 25.9969 29.4114 26.0157 29.42C26.0345 29.427 26.054 29.4333 26.0744 29.4372C26.0948 29.4419 26.1151 29.4435 26.1355 29.4435C26.2177 29.4435 26.2983 29.4106 26.3571 29.3519C26.4158 29.2931 26.4487 29.2125 26.4487 29.1303C26.4487 29.048 26.4158 28.9674 26.3571 28.9087C26.343 28.8946 26.3265 28.8813 26.3093 28.8695C26.2929 28.8586 26.2741 28.8492 26.2553 28.8413C26.2365 28.8335 26.2169 28.8272 26.1966 28.8233C26.1566 28.8155 26.1151 28.8155 26.0744 28.8233C26.054 28.8272 26.0345 28.8335 26.0157 28.8413C25.9969 28.8492 25.9789 28.8586 25.9616 28.8695C25.9444 28.8813 25.9288 28.8946 25.9139 28.9087C25.8559 28.9666 25.8223 29.048 25.8223 29.1303C25.8223 29.1506 25.8246 29.171 25.8285 29.1913C25.8324 29.2117 25.8387 29.2313 25.8465 29.2501C25.8544 29.2689 25.8638 29.2869 25.8755 29.3041Z" fill="white"/>
<path d="M27.2978 31.365C27.196 31.2264 27.001 31.1959 26.8608 31.2969C26.8585 31.2985 26.5296 31.5224 26.3566 31.4026C26.106 31.2303 26.1107 31.0455 26.1608 30.7965C26.2242 30.5984 26.265 30.4074 26.2775 30.2484C26.2814 30.2046 26.283 30.1607 26.2814 30.1161C26.2751 29.9477 26.1365 29.8146 25.9697 29.8146C25.9666 29.8146 25.9627 29.8146 25.9588 29.8146C25.7865 29.8201 25.6511 29.9634 25.655 30.1349C25.655 30.1443 25.655 30.1537 25.655 30.1631C25.6526 30.2422 25.6252 30.3463 25.597 30.4559C25.5814 30.5178 25.5641 30.5851 25.5493 30.6564C25.4224 31.0127 25.2627 31.3517 25.0677 31.4183C25.0317 31.4308 24.9573 31.4151 24.9189 31.329C24.8469 31.1693 24.9283 30.896 25.2314 30.5272C25.3402 30.3948 25.3676 30.214 25.3042 30.0542C25.2439 29.9023 25.1123 29.8005 24.9534 29.7809C24.6934 29.7488 24.5047 29.6909 24.3685 29.6267C24.1422 29.521 23.901 29.7504 24.009 29.9751C24.0842 30.1325 24.2494 30.2782 24.5791 30.3518C24.1194 31.0166 24.2275 31.4488 24.4154 31.7025C24.6229 31.9828 24.8516 32.0525 25.0254 32.0533C25.1186 32.0533 25.1961 32.0337 25.2462 32.0173C25.3817 31.9711 25.5078 31.881 25.6213 31.7636C25.507 31.5811 25.5007 31.419 25.5117 31.2648C25.5148 31.2217 25.55 31.1904 25.5955 31.192C25.6385 31.1951 25.6714 31.2319 25.6683 31.2758C25.6589 31.4089 25.6636 31.5365 25.7536 31.6814C25.8084 31.7495 25.8734 31.8176 25.9533 31.8834C26.4051 32.253 27.0104 31.9672 27.2328 31.8012C27.3706 31.6986 27.3988 31.5044 27.297 31.3658L27.2978 31.365Z" fill="white"/>
<path d="M47.883 22.3735C47.8658 22.3735 47.8486 22.372 47.8306 22.3688C47.1023 22.2467 46.5714 22.0486 45.6083 21.6891C45.4697 21.6375 45.3225 21.5827 45.1636 21.5231C45.0163 21.4715 44.8613 21.4268 44.7149 21.365C42.7667 20.5334 40.8843 20.1121 39.8867 21.9585C39.8045 22.1104 39.615 22.1676 39.4623 22.0854C39.3104 22.0031 39.2532 21.8129 39.3355 21.661C40.6361 19.2531 43.2075 20.0236 44.9239 20.7746C45.0688 20.838 45.2231 20.8811 45.375 20.9343C45.5402 20.9954 45.6882 21.051 45.8268 21.1027C46.7836 21.4597 47.2644 21.639 47.9331 21.751C48.1038 21.78 48.2189 21.9413 48.19 22.112C48.1641 22.2655 48.0318 22.3735 47.8814 22.3735H47.883Z" fill="#6FA486"/>
<path d="M17.6812 30.6063C17.4948 30.4003 17.1385 30.0895 17.1832 29.9571C17.2983 29.7849 17.4666 30.1333 17.5606 30.2641C17.6553 30.3956 17.8072 30.4692 17.9529 30.398C18.0985 30.3267 18.1588 30.1513 18.0876 30.0057C18.0359 29.9008 17.6937 29.3534 17.2724 29.3143C17.126 29.3002 16.913 29.3378 16.722 29.593C16.3837 30.0456 16.765 30.4669 17.2474 30.9993C17.3272 31.0878 17.3813 31.1599 17.4181 31.2178C17.4627 31.2883 17.4032 31.3807 17.321 31.3666C17.321 31.3666 17.3194 31.3666 17.3186 31.3666C16.9678 31.3055 16.57 30.8811 16.5567 30.8701C16.4236 30.7605 16.2263 30.7793 16.1159 30.9124C15.9608 31.0996 15.7596 31.4559 15.6375 31.1873C15.5482 30.9899 15.6954 30.4442 15.8544 30.1137C15.8661 30.091 15.8747 30.0675 15.8802 30.0417C15.8849 30.0206 15.888 29.9994 15.888 29.9775C15.8943 29.7856 15.8199 29.5179 15.5866 29.3824C15.1997 29.1584 14.7056 29.4724 14.5436 29.5758C13.9289 29.9673 13.2523 30.9563 13.6329 31.5553C13.7973 31.8137 13.9994 31.8732 14.1395 31.8779C14.1466 31.8779 14.1528 31.8779 14.1599 31.8779C14.4731 31.8779 14.7331 31.6328 15.0102 31.2812C15.0275 31.3548 15.0541 31.4245 15.0901 31.4895C15.2467 31.7706 15.4628 31.8466 15.6179 31.8607C15.8778 31.8842 16.1261 31.7424 16.3101 31.5944C16.2059 31.4402 16.1832 31.3047 16.1809 31.2945C16.1746 31.2515 16.2036 31.2123 16.2467 31.2053C16.2897 31.199 16.3289 31.228 16.3359 31.2711C16.3383 31.2859 16.3868 31.5561 16.6875 31.7385C16.8151 31.7957 16.9717 31.8536 17.1691 31.9116C17.2685 31.9405 17.3648 31.9546 17.4564 31.9546C17.6921 31.9546 17.8926 31.8607 18.0006 31.6884C18.1244 31.4911 18.1698 31.1426 17.6835 30.6055L17.6812 30.6063ZM14.1458 31.163C14.1192 30.8506 14.7346 30.0166 15.087 29.936C15.1559 29.9203 15.2146 29.9869 15.1888 30.0534C15.069 30.3635 14.5475 31.1231 14.2609 31.2327C14.2076 31.253 14.1505 31.2202 14.1458 31.1638V31.163Z" fill="white"/>
<path d="M27.4999 55C21.942 55 16.5868 53.3501 12.0139 50.2282C7.5491 47.1806 4.10612 42.9366 2.05693 37.955C1.99899 37.8148 2.06633 37.6551 2.20649 37.5971C2.34665 37.54 2.50639 37.6065 2.56434 37.7467C6.73867 47.8948 16.5265 54.4519 27.4999 54.4519C42.361 54.4519 54.4518 42.3611 54.4518 27.5C54.4518 25.5714 54.2474 23.6467 53.8434 21.7784C53.8113 21.6304 53.9052 21.4847 54.0532 21.4526C54.2012 21.4205 54.3469 21.5145 54.379 21.6625C54.7908 23.5684 54.9999 25.5322 54.9999 27.4992C54.9999 31.2115 54.2725 34.8127 52.8388 38.2032C51.4536 41.4778 49.4709 44.4189 46.9457 46.9442C44.4204 49.4694 41.4793 51.4521 38.2047 52.8372C34.8142 54.271 31.213 54.9984 27.5007 54.9984L27.4999 55Z" fill="white"/>
<path d="M0.321042 29.3957C0.176965 29.3957 0.0563781 29.2837 0.0477648 29.1381C0.0156606 28.5962 0 28.045 0 27.5C0 23.7877 0.727435 20.1865 2.16116 16.796C3.54634 13.5214 5.52897 10.5803 8.05424 8.05503C10.5795 5.52976 13.5206 3.54712 16.7952 2.16194C20.1857 0.727435 23.7877 0 27.5 0C38.5102 0 48.4327 6.53751 52.7793 16.6558C52.8388 16.7952 52.7746 16.9557 52.636 17.016C52.4967 17.0755 52.3361 17.0113 52.2758 16.8727C48.0162 6.95565 38.2909 0.548121 27.5 0.548121C12.6389 0.548121 0.548121 12.6389 0.548121 27.5C0.548121 28.034 0.563781 28.5743 0.595103 29.1052C0.603716 29.2563 0.48861 29.3863 0.337486 29.3949C0.332005 29.3949 0.326523 29.3949 0.321042 29.3949V29.3957Z" fill="white"/>
<path d="M27.537 50.5728C22.914 50.5728 18.4539 49.2103 14.6382 46.6333C10.9149 44.1183 8.02392 40.6087 6.27933 36.4845C6.22374 36.3537 6.28481 36.2026 6.41636 36.147C6.54791 36.0914 6.69825 36.1533 6.75385 36.284C10.2947 44.6515 18.4523 50.0583 27.5378 50.0583C39.9762 50.0583 50.0953 39.9392 50.0953 27.5008C50.0953 26.2754 49.9959 25.0452 49.8009 23.8456C49.7782 23.7055 49.8729 23.5731 50.0139 23.5496C50.1548 23.5261 50.2864 23.6217 50.3099 23.7626C50.5095 24.9896 50.6113 26.2472 50.6113 27.5008C50.6113 33.664 48.2113 39.4577 43.8538 43.816C39.4962 48.1736 33.7018 50.5735 27.5386 50.5735L27.537 50.5728Z" fill="white"/>
<path d="M5.86771 20.5984C5.84108 20.5984 5.81368 20.5944 5.78705 20.5851C5.65237 20.5404 5.57877 20.3948 5.6234 20.2593C7.1323 15.6888 9.99036 11.7587 13.8891 8.89442C17.8669 5.97137 22.5862 4.42645 27.5373 4.42645C31.9755 4.42645 36.2845 5.68948 40.0007 8.0785C43.6191 10.4057 46.5109 13.6819 48.3627 17.5539C48.4238 17.6824 48.3698 17.8358 48.2414 17.8977C48.1129 17.9596 47.9595 17.9047 47.8976 17.7763C44.1672 9.9797 36.1756 4.9409 27.5373 4.9409C17.7799 4.9409 9.16974 11.1613 6.11279 20.4198C6.07678 20.5279 5.97655 20.5968 5.86849 20.5968L5.86771 20.5984Z" fill="white"/>
</g>
<defs>
<clipPath id="clip0_59_2277">
<rect width="55" height="55" fill="white"/>
</clipPath>
</defs>
</svg>
