<svg width="261" height="261" viewBox="0 0 261 261" fill="none" xmlns="http://www.w3.org/2000/svg">
<g clip-path="url(#clip0_59_2224)">
<path d="M21.2027 139.377C21.3327 139.407 21.4702 139.388 21.5965 139.318C21.8641 139.169 21.9607 138.827 21.8121 138.56C20.3592 135.962 19.6234 135.817 17.6838 134.431C17.4311 134.253 17.0818 134.316 16.9072 134.569C16.7288 134.822 16.8068 135.148 17.0446 135.345C18.3861 136.449 19.4674 136.653 20.8385 139.102C20.9203 139.247 21.054 139.34 21.2027 139.373V139.377Z" fill="white"/>
<path d="M8.99591 123.384C8.76553 123.663 8.59832 124.179 8.49427 124.525C8.15985 125.647 7.20488 127.464 8.71351 130.857C10.0809 133.93 11.6787 135.141 13.7559 135.754C15.833 136.371 17.5721 135.996 17.5869 134.937C17.6241 132.191 17.5386 130.593 14.317 128.401C13.2617 127.683 11.6713 127.067 10.5974 126.379C9.70563 125.807 9.4864 124.804 9.58301 123.882C9.66476 123.109 9.41208 122.879 8.9922 123.377V123.384H8.99591Z" fill="white"/>
<path d="M216.261 163.407C216.131 163.203 216.209 162.965 216.317 162.735C217.907 159.342 220.23 157.644 222.567 158.283C222.864 158.365 223.02 158.692 222.927 158.986C222.835 159.279 222.534 159.372 222.225 159.346C220.423 159.183 218.944 160.23 217.142 163.485C216.993 163.753 216.581 163.731 216.354 163.523C216.317 163.489 216.284 163.448 216.258 163.407H216.261Z" fill="#6FA486"/>
<path d="M219.301 159.476C219.167 159.264 219.071 159.164 219.256 158.982C220.524 157.752 219.647 156.34 219.613 156.284C219.453 156.024 219.535 155.678 219.795 155.519C220.055 155.359 220.393 155.433 220.557 155.69C221.01 156.41 221.508 158.146 220.174 159.558C219.962 159.781 219.609 159.792 219.386 159.58C219.353 159.547 219.323 159.513 219.301 159.476Z" fill="#6FA486"/>
<path d="M236.446 155.34C236.245 155.039 235.97 154.798 235.669 154.601C234.688 153.965 232.708 152.97 229.296 153.378C225.956 153.776 223.637 155.166 222.463 156.986C221.289 158.807 221.735 159.19 222.63 159.758C223.321 160.197 226.952 161.836 231.039 159.409C232.135 158.759 233.042 157.837 233.767 156.786C234.186 156.176 234.796 155.53 235.428 155.656C236.189 155.808 236.806 155.879 236.442 155.34H236.446Z" fill="#6FA486"/>
<path d="M220.145 142.937C220.49 143.048 220.799 143.242 221.07 143.479C221.951 144.249 223.452 145.88 223.998 149.272C224.533 152.594 223.842 153.776 222.415 155.403C220.988 157.031 219.758 156.845 219.182 155.957C217.689 153.657 216.507 151.766 218.064 148.195C218.573 147.024 218.681 146.898 219.495 145.913C219.963 145.341 220.42 144.579 220.123 144.003C219.77 143.312 219.528 142.74 220.145 142.941V142.937Z" fill="#6FA486"/>
<path d="M225.859 105.842C222.823 115.785 218.03 131.689 214.708 142.733C214.173 141.937 213.485 141.291 212.657 140.815C210.613 139.645 208.019 139.816 205.886 141.254C204.961 141.878 204.073 142.688 203.256 143.654C200.97 146.344 199.406 148.867 198.488 151.402C198.406 151.513 198.332 151.628 198.284 151.766C198.261 151.825 196.062 157.57 190.83 161.505C188.147 163.523 185.642 164.388 184.446 163.708C183.376 163.103 182.956 160.977 183.287 157.878C183.766 153.404 187.277 146.846 188.95 144.732C191.261 141.804 192.974 141.347 193.401 141.584C193.713 141.759 194.025 142.866 193.275 145.133C191.614 150.127 187.634 154.133 185.739 155.835C184.985 156.511 184.524 157.462 184.494 158.473C184.472 159.142 184.513 159.863 184.65 160.572C184.799 160.609 193.535 153.746 196.062 146.177C197.399 142.164 196.418 139.871 194.869 138.994C192.625 137.731 189.544 139.188 186.623 142.889C185.029 144.91 182.228 149.949 180.946 154.541C179.716 156.656 177.698 159.506 174.781 161.702C172.098 163.72 169.594 164.585 168.397 163.905C167.327 163.3 166.907 161.174 167.238 158.075C167.717 153.601 171.229 147.043 172.901 144.929C175.212 142.001 176.925 141.543 177.352 141.781C177.665 141.956 177.977 143.063 177.226 145.33C175.506 150.502 171.299 154.616 169.493 156.206C168.925 156.704 168.572 157.403 168.505 158.157C168.434 158.974 168.423 159.851 168.598 160.773C168.747 160.81 177.483 153.947 180.009 146.378C181.347 142.365 180.366 140.072 178.817 139.195C176.572 137.932 173.492 139.388 170.571 143.089C168.613 145.568 163.106 155.359 164.641 163.504C165.09 164.879 165.852 165.882 166.933 166.492C167.662 166.904 168.49 167.108 169.404 167.108C171.448 167.108 173.908 166.079 176.572 164.076C177.988 163.01 179.203 161.836 180.236 160.661C180.295 162.248 180.641 164.868 182.989 166.291C183.707 166.726 184.546 166.908 185.46 166.908C187.504 166.908 189.964 165.878 192.628 163.876C194.698 162.319 196.34 160.528 197.607 158.848C197.659 159.361 197.726 159.881 197.823 160.409L197.838 160.479C198.692 164.184 200.662 166.443 203.237 166.677C203.389 166.692 203.542 166.7 203.698 166.7C205.585 166.7 207.48 165.637 209.286 163.615C209.112 162.835 209.13 161.906 209.457 160.799C209.517 160.602 209.721 160.49 209.918 160.546C210.115 160.606 210.226 160.81 210.171 161.007C209.925 161.847 209.877 162.56 209.97 163.181C210.082 163.623 210.241 164.039 210.461 164.418C211.088 165.499 212.107 166.168 213.403 166.358C213.608 166.388 213.808 166.402 214.002 166.402C216.265 166.402 217.755 164.466 218.342 163.17C218.654 162.482 218.457 161.642 217.818 161.237C217.03 160.739 216.016 161.074 215.655 161.895C215.648 161.91 214.886 163.571 213.834 163.419C213.34 163.348 213.154 163.14 213.032 162.924C212.252 161.587 213.028 158.086 213.827 156.028C213.827 156.02 213.831 156.009 213.834 156.002L213.864 155.916C214.028 155.374 230.206 101.491 231.477 97.8416C233.807 91.1568 237.887 87.1994 241.867 87.7605C243.583 88.002 244.958 89.0908 245.739 90.8261C246.868 93.3305 246.433 96.5856 244.631 99.3428C240.648 105.426 235.672 104.712 232.25 104.181L231.396 104.058C231.087 104.014 230.797 104.203 230.712 104.504L230.251 106.139C230.151 106.488 230.374 106.849 230.734 106.916L231.797 107.116C235.535 107.696 241.934 108.643 247.117 100.978C249.562 97.3585 250.023 93.0779 248.455 89.6036C247.255 86.943 245.007 85.2003 242.287 84.8176C236.746 84.0372 231.537 88.6523 228.676 96.8643C228.441 97.5294 227.747 99.7701 226.754 102.999L225.881 105.849L225.859 105.842ZM213.05 148.228V148.243C211.965 151.859 211.219 154.344 211.029 154.972C208.112 161.668 205.151 163.864 203.493 163.72C202.301 163.612 201.268 162.163 200.729 159.848C199.818 154.787 201.208 150.651 205.518 145.579C206.165 144.817 206.849 144.193 207.547 143.721C208.751 142.907 210.111 142.788 211.178 143.398C212.512 144.159 213.192 145.921 213.047 148.232L213.05 148.228Z" fill="#6FA486"/>
<path d="M196.077 82.5435C188.088 81.9564 181.125 90.1572 174.804 107.607C174.797 107.629 174.789 107.651 174.782 107.674L158.176 161.497C156.961 165.191 154.233 166.395 152.067 165.949C150.815 165.693 149.459 164.779 149.002 163.021C148.86 162.475 148.009 159.439 150.016 150.209C150.506 147.957 156.864 124.975 156.864 124.975C157.083 124.183 156.623 123.366 155.831 123.143C155.043 122.923 154.222 123.384 153.999 124.176L144.204 159.339C143.372 162.486 141.603 164.704 139.47 165.28C138.244 165.611 137.063 165.325 136.234 164.5C134.941 163.21 134.64 160.832 135.402 157.993L149.377 107.841C151.06 108.32 152.862 108.625 154.735 108.625C161.594 108.625 169.416 104.578 175.808 90.447C178.297 84.9439 178.305 80.0204 175.834 76.94C173.95 74.5916 170.903 73.6515 167.473 74.3686C161.267 75.6617 153.104 82.7107 148.801 98.5921L147.805 102.204C147.738 102.442 147.853 102.694 148.076 102.798C148.727 103.107 149.34 103.352 149.975 103.53C150.25 103.609 150.536 103.452 150.614 103.177L151.666 99.3873C155.623 84.7693 162.98 78.3409 168.079 77.2781C170.375 76.7988 172.352 77.3525 173.511 78.7979C175.258 80.9754 175.105 84.773 173.095 89.2208C166.878 102.962 158.726 108.12 148.86 104.552C140.136 101.398 133.131 92.5391 133.035 92.4164C132.529 91.7699 131.597 91.6547 130.95 92.1563C130.303 92.658 130.188 93.5944 130.69 94.2409C130.983 94.6162 137.642 103.062 146.564 106.834L132.529 157.202C131.481 161.111 132.065 164.533 134.131 166.596C135.298 167.759 136.847 168.379 138.486 168.379C139.065 168.379 139.656 168.301 140.243 168.141C142.283 167.591 144.067 166.146 145.375 164.076C145.189 163.155 145.189 162.103 145.483 160.892C145.531 160.691 145.732 160.568 145.932 160.617C146.133 160.665 146.256 160.866 146.207 161.066C146.025 161.817 145.973 162.493 146.007 163.114C146.523 166.012 148.559 168.245 151.465 168.844C151.926 168.94 152.405 168.989 152.899 168.989C155.976 168.989 159.465 167.064 161.007 162.386L177.613 108.569C183.332 92.788 189.482 85.0256 195.862 85.4901C196.683 85.557 197.393 84.9365 197.452 84.1153C197.512 83.2978 196.899 82.5843 196.077 82.5249V82.5435Z" fill="#6FA486"/>
<path d="M114.893 133.959C115.179 130.968 114.615 128.798 113.686 127.446C106.503 116.993 92.8993 123.719 87.6079 148.908C86.3594 154.842 82.6585 160.03 77.356 162.973C73.9374 164.871 70.1733 165.693 66.9479 163.965C57.9556 159.138 64.005 124.915 68.1519 115.447C68.4751 114.711 68.0813 113.849 67.3381 113.541C66.6915 113.27 65.7886 113.459 65.391 114.344C64.7296 115.819 56.0234 138.158 50.0483 146.237C49.8848 146.456 49.5393 146.374 49.4947 146.107C48.5731 140.804 48.0121 117.417 53.8868 93.9437L54.329 92.606C54.329 92.606 54.329 92.5948 54.3364 92.5874C58.6096 79.7195 67.0037 75.7733 71.3363 77.163C73.7479 77.9359 74.6174 80.2471 73.6587 83.3461C70.7567 92.7212 59.3082 90.9413 58.788 90.8558C58.7397 90.8484 57.6658 90.7072 57.0118 90.6217C56.7071 90.5808 56.4135 90.7518 56.3021 91.0379C56.1014 91.5432 55.9528 92.0672 55.7856 92.6543C55.6741 93.0444 55.9342 93.442 56.3355 93.5015C57.1493 93.6204 58.3346 93.7913 58.3792 93.7988C63.4179 94.6237 73.577 93.6798 76.505 84.2231C78.1623 78.8648 75.5649 75.3942 72.2504 74.3315C66.7473 72.5628 57.1047 75.9962 52.04 90.1981C25.7282 89.8934 18.4823 105.21 16.7842 112.188C14.7739 120.456 19.7903 125.699 24.5837 129.352C24.8513 129.556 25.1671 129.657 25.4792 129.657C25.9735 129.657 26.4639 129.411 26.7538 128.947C27.1588 128.289 26.9507 127.423 26.3413 126.951C22.4731 123.96 17.9956 119.646 19.6417 113.01C21.1615 106.89 28.4816 93.1671 50.9959 93.3046L33.171 147.396C28.411 162.215 20.7936 167.439 15.6769 167.424H15.5951C11.9759 167.372 9.09986 164.871 7.89594 160.728C6.30184 155.236 7.94424 147.931 11.7158 143.732C13.3805 141.878 16.1897 139.816 20.147 140.522C20.9534 140.667 21.7263 140.128 21.8712 139.318C22.0161 138.511 21.4773 137.738 20.6672 137.594C16.5352 136.858 12.5705 138.333 9.50489 141.744C5.03103 146.723 3.15082 155.058 5.03846 161.557C6.60283 166.941 10.6308 170.326 15.5505 170.397H15.6657C22.0793 170.415 30.752 164.634 35.9951 148.317L47.9154 112.107C46.065 120.69 45.2623 146.344 47.2243 150.179C47.5178 150.759 48.0826 151.149 48.7292 151.227C49.3795 151.305 50.026 151.056 50.4571 150.558C52.8203 147.823 58.4461 137.668 60.5456 134.064C59.297 140.05 59.0221 153.278 60.2186 158.566C60.1368 158.595 61.1364 161.453 61.1364 161.453C62.0616 163.616 63.4699 165.366 65.4727 166.547C72.4288 170.65 82.3835 164.351 87.1137 158.651C87.816 163.095 89.9564 166.109 92.773 167.264C93.5942 167.603 94.5082 167.792 95.4929 167.792C100.011 167.807 106.016 163.909 111.122 152.475C111.125 152.464 111.724 151.216 112.835 150.978C113.719 150.788 114.25 149.848 113.901 148.964C113.63 148.284 112.872 147.92 112.158 148.083C109.628 148.656 108.521 151.004 108.405 151.268C103.4 162.478 97.2803 166.473 93.9026 164.511C81.9933 157.592 100.019 112.378 111.608 129.764C112.214 130.671 112.337 132.076 112.151 133.116C111.672 135.773 114.719 135.959 114.908 133.971L114.893 133.959Z" fill="white"/>
<path d="M122.79 139.061C122.842 139.143 122.905 139.221 122.976 139.288C123.042 139.355 123.117 139.418 123.199 139.474C123.28 139.526 123.366 139.57 123.455 139.611C123.544 139.645 123.637 139.674 123.734 139.693C123.83 139.715 123.927 139.723 124.023 139.723C124.414 139.723 124.796 139.567 125.075 139.288C125.354 139.009 125.51 138.627 125.51 138.236C125.51 137.846 125.354 137.463 125.075 137.185C125.008 137.118 124.93 137.055 124.848 136.999C124.77 136.947 124.681 136.902 124.592 136.865C124.503 136.828 124.41 136.798 124.313 136.78C124.124 136.743 123.927 136.743 123.734 136.78C123.637 136.798 123.544 136.828 123.455 136.865C123.366 136.902 123.28 136.947 123.199 136.999C123.117 137.055 123.042 137.118 122.972 137.185C122.697 137.46 122.537 137.846 122.537 138.236C122.537 138.333 122.548 138.43 122.567 138.526C122.585 138.623 122.615 138.716 122.652 138.805C122.689 138.894 122.734 138.98 122.79 139.061Z" fill="white"/>
<path d="M129.541 148.841C129.058 148.184 128.133 148.039 127.468 148.518C127.457 148.525 125.896 149.588 125.075 149.02C123.886 148.202 123.908 147.325 124.146 146.144C124.447 145.204 124.64 144.297 124.7 143.543C124.718 143.334 124.726 143.126 124.718 142.915C124.689 142.116 124.031 141.484 123.239 141.484H123.187C122.37 141.51 121.727 142.19 121.746 143.004V143.138C121.734 143.513 121.604 144.007 121.471 144.527C121.396 144.821 121.315 145.14 121.244 145.479C120.642 147.169 119.884 148.778 118.959 149.094C118.788 149.153 118.435 149.079 118.253 148.67C117.911 147.912 118.297 146.616 119.735 144.865C120.252 144.237 120.382 143.379 120.081 142.621C119.795 141.9 119.171 141.417 118.416 141.324C117.183 141.172 116.287 140.897 115.64 140.592C114.567 140.091 113.422 141.179 113.935 142.246C114.292 142.993 115.076 143.684 116.64 144.033C114.459 147.188 114.972 149.239 115.863 150.443C116.848 151.773 117.933 152.104 118.758 152.108C119.2 152.108 119.568 152.015 119.806 151.937C120.449 151.717 121.047 151.29 121.586 150.733C121.043 149.867 121.014 149.098 121.066 148.366C121.08 148.161 121.248 148.013 121.463 148.02C121.668 148.035 121.824 148.21 121.809 148.418C121.764 149.049 121.786 149.655 122.214 150.343C122.474 150.666 122.782 150.989 123.161 151.301C125.305 153.055 128.178 151.699 129.233 150.911C129.887 150.424 130.021 149.503 129.538 148.845H129.541V148.841Z" fill="white"/>
<path d="M227.227 106.172C227.145 106.172 227.063 106.165 226.978 106.15C223.522 105.57 221.003 104.63 216.432 102.925C215.775 102.68 215.076 102.419 214.322 102.137C213.623 101.892 212.887 101.68 212.193 101.386C202.948 97.4402 194.015 95.4411 189.281 104.203C188.891 104.924 187.991 105.195 187.267 104.805C186.546 104.415 186.275 103.512 186.665 102.791C192.837 91.3648 205.04 95.0212 213.185 98.5847C213.872 98.8857 214.604 99.09 215.325 99.3427C216.109 99.6326 216.811 99.8964 217.469 100.142C222.01 101.836 224.291 102.687 227.465 103.218C228.275 103.356 228.821 104.121 228.683 104.931C228.561 105.66 227.933 106.172 227.219 106.172H227.227Z" fill="#6FA486"/>
<path d="M83.9039 145.241C83.0195 144.263 81.3288 142.788 81.5406 142.16C82.0868 141.343 82.8857 142.996 83.3316 143.617C83.7812 144.241 84.5021 144.59 85.1933 144.252C85.8844 143.914 86.1705 143.082 85.8324 142.391C85.5871 141.893 83.9633 139.295 81.9642 139.11C81.2693 139.043 80.2586 139.221 79.352 140.432C77.7467 142.58 79.5563 144.579 81.8453 147.106C82.2243 147.526 82.4807 147.868 82.6553 148.143C82.8672 148.477 82.5847 148.916 82.1946 148.849H82.1834C80.5187 148.559 78.6311 146.545 78.5679 146.493C77.9362 145.973 76.9999 146.062 76.4759 146.694C75.7402 147.582 74.7852 149.272 74.2055 147.998C73.7819 147.061 74.4805 144.472 75.2348 142.903C75.2906 142.796 75.3314 142.684 75.3575 142.562C75.3798 142.461 75.3946 142.361 75.3946 142.257C75.4243 141.346 75.0713 140.076 73.964 139.433C72.1284 138.37 69.7837 139.86 69.0145 140.351C66.0976 142.209 62.8871 146.902 64.693 149.744C65.4733 150.97 66.432 151.253 67.0972 151.275H67.1938C68.6801 151.275 69.9138 150.112 71.2292 148.444C71.3109 148.793 71.4373 149.124 71.6082 149.432C72.3514 150.766 73.3769 151.127 74.1127 151.193C75.3463 151.305 76.5242 150.632 77.3974 149.93C76.9032 149.198 76.7955 148.555 76.7843 148.507C76.7546 148.303 76.8921 148.117 77.0965 148.083C77.3008 148.054 77.4866 148.191 77.5201 148.395C77.5312 148.466 77.7616 149.748 79.1885 150.614C79.7942 150.885 80.5373 151.16 81.4737 151.435C81.9456 151.572 82.4027 151.639 82.8374 151.639C83.9559 151.639 84.9071 151.193 85.4199 150.376C86.007 149.44 86.2225 147.786 83.915 145.237H83.9039V145.241ZM67.1269 147.883C67.0005 146.4 69.9212 142.443 71.5933 142.06C71.9203 141.986 72.199 142.301 72.0764 142.617C71.5079 144.089 69.0331 147.693 67.6731 148.213C67.4204 148.31 67.1492 148.154 67.1269 147.886V147.883Z" fill="white"/>
<path d="M130.5 261C104.125 261 78.7128 253.171 57.0123 238.356C35.8246 223.894 19.4861 203.754 9.76179 180.114C9.48682 179.449 9.80638 178.691 10.4715 178.416C11.1367 178.144 11.8947 178.46 12.1697 179.125C31.9788 227.283 78.4266 258.399 130.5 258.399C201.023 258.399 258.399 201.023 258.399 130.5C258.399 121.348 257.429 112.214 255.512 103.348C255.36 102.646 255.806 101.955 256.508 101.803C257.21 101.65 257.901 102.096 258.054 102.798C260.008 111.843 261 121.162 261 130.496C261 148.113 257.548 165.202 250.745 181.292C244.171 196.831 234.763 210.788 222.779 222.772C210.796 234.755 196.839 244.164 181.299 250.737C165.21 257.541 148.121 260.993 130.504 260.993V261H130.5Z" fill="white"/>
<path d="M1.52349 139.496C0.839778 139.496 0.26754 138.965 0.226666 138.273C0.0743166 135.702 0 133.086 0 130.5C0 112.883 3.45201 95.7941 10.2557 79.7046C16.829 64.165 26.2375 50.2083 38.221 38.2248C50.2046 26.2412 64.1613 16.8327 79.7009 10.2594C95.7904 3.45201 112.883 0 130.5 0C182.748 0 229.835 31.0235 250.462 79.0394C250.744 79.7009 250.44 80.4626 249.782 80.7487C249.12 81.0311 248.359 80.7264 248.073 80.0687C227.858 33.0077 181.708 2.60108 130.5 2.60108C59.9772 2.60108 2.60108 59.9772 2.60108 130.5C2.60108 133.034 2.6754 135.598 2.82403 138.117C2.86491 138.835 2.31868 139.451 1.60152 139.492H1.52349V139.496Z" fill="white"/>
<path d="M130.675 239.991C108.737 239.991 87.5714 233.525 69.4642 221.296C51.7954 209.361 38.0766 192.707 29.7977 173.135C29.5339 172.515 29.8237 171.798 30.4479 171.534C31.0722 171.27 31.7856 171.564 32.0495 172.184C48.8525 211.892 87.564 237.549 130.679 237.549C189.705 237.549 237.724 189.53 237.724 130.504C237.724 124.688 237.253 118.851 236.327 113.158C236.22 112.493 236.669 111.865 237.338 111.754C238.007 111.642 238.631 112.095 238.743 112.764C239.69 118.587 240.173 124.555 240.173 130.504C240.173 159.751 228.784 187.244 208.106 207.927C187.427 228.605 159.93 239.994 130.683 239.994H130.675V239.991Z" fill="white"/>
<path d="M27.8424 97.7487C27.716 97.7487 27.586 97.7301 27.4596 97.6855C26.8205 97.4737 26.4712 96.7826 26.683 96.1397C33.8434 74.4504 47.4062 55.8007 65.9073 42.2081C84.7838 28.3369 107.179 21.0056 130.674 21.0056C151.736 21.0056 172.184 26.9993 189.819 38.3363C206.99 49.3797 220.713 64.9267 229.501 83.3015C229.79 83.9109 229.534 84.6392 228.925 84.9328C228.315 85.2263 227.587 84.9662 227.293 84.3568C209.591 47.3583 171.667 23.4469 130.674 23.4469C84.3713 23.4469 43.512 52.9655 29.0054 96.9015C28.8345 97.4143 28.3589 97.7412 27.8461 97.7412V97.7487H27.8424Z" fill="white"/>
<path d="M63.3367 224.451C63.2884 224.321 63.2215 224.18 63.1434 224.035C63.0617 223.89 62.9725 223.745 62.8759 223.604C62.7013 223.377 62.4969 223.173 62.2554 222.987C61.8243 222.656 61.4193 222.445 61.044 222.352C60.665 222.259 60.3083 222.262 59.9664 222.363C59.6283 222.463 59.3013 222.645 58.9891 222.913C58.677 223.18 58.376 223.504 58.0788 223.886C57.7926 224.258 57.5623 224.629 57.3876 225.001C57.2093 225.373 57.1164 225.737 57.0978 226.093C57.0792 226.45 57.1609 226.799 57.3393 227.141C57.5177 227.483 57.8187 227.818 58.2423 228.145C58.5804 228.401 58.9074 228.587 59.2344 228.695C59.5614 228.802 59.8512 228.873 60.1076 228.903C60.1187 228.91 60.1262 228.94 60.1299 228.984C60.1299 229.029 60.1299 229.081 60.1225 229.14C60.115 229.2 60.1039 229.259 60.0927 229.315C60.0816 229.371 60.063 229.415 60.0407 229.445C60.0221 229.467 59.9701 229.482 59.8809 229.49H59.7509C59.71 229.49 59.6691 229.482 59.6245 229.479C59.3273 229.438 59.0189 229.337 58.703 229.178C58.3835 229.018 58.1011 228.843 57.8558 228.654C57.343 228.26 56.9603 227.862 56.7113 227.453C56.4624 227.048 56.3286 226.625 56.31 226.19C56.2914 225.755 56.3806 225.306 56.5776 224.841C56.7745 224.377 57.0643 223.897 57.4471 223.396C57.8075 222.924 58.1865 222.537 58.5767 222.233C58.9668 221.928 59.3756 221.727 59.7918 221.627C60.2116 221.527 60.6464 221.538 61.1034 221.657C61.5605 221.776 62.0324 222.025 62.5229 222.4C62.6418 222.489 62.7644 222.593 62.8945 222.712C63.0245 222.831 63.1509 222.954 63.2698 223.084C63.3887 223.214 63.5002 223.347 63.5968 223.489C63.6934 223.63 63.7714 223.764 63.8234 223.89C63.8383 223.92 63.8494 223.949 63.8606 223.979C63.868 224.009 63.8755 224.042 63.8792 224.072C63.8866 224.135 63.8866 224.172 63.8792 224.184C63.8606 224.206 63.8234 224.236 63.7677 224.273C63.712 224.31 63.6451 224.347 63.5708 224.38C63.541 224.395 63.5002 224.41 63.4556 224.432C63.4073 224.451 63.3664 224.458 63.3329 224.451H63.3367Z" fill="white"/>
<path d="M64.5957 230.98L63.061 232.217C62.9904 232.269 62.9161 232.28 62.8307 232.243C62.7972 232.228 62.7452 232.202 62.6857 232.161L62.5371 232.065C62.4442 232.005 62.3959 231.942 62.3996 231.879C62.3996 231.816 62.4442 231.753 62.5222 231.701L68.6757 226.918C68.7648 226.852 68.8503 226.844 68.9395 226.904L69.4634 227.242C69.5526 227.297 69.5823 227.379 69.5563 227.487L68.1369 233.436C68.122 233.488 68.1071 233.562 68.0886 233.655C68.0737 233.752 68.0514 233.852 68.0254 233.96C68.0068 234.057 67.9919 234.153 67.9808 234.257C67.9696 234.361 67.9659 234.443 67.9808 234.514C68.0031 234.618 68.044 234.703 68.1034 234.777C68.1629 234.852 68.2298 234.911 68.3041 234.959L68.553 235.108C68.6274 235.156 68.6794 235.201 68.7091 235.249C68.7388 235.294 68.75 235.335 68.7388 235.376C68.7314 235.417 68.7128 235.461 68.6794 235.509C68.6459 235.558 68.6125 235.617 68.5716 235.677C68.5307 235.74 68.4304 235.743 68.2706 235.695C68.1889 235.669 68.1108 235.636 68.0402 235.591C67.9659 235.547 67.9028 235.509 67.8545 235.48C67.6538 235.35 67.5126 235.19 67.4271 234.993C67.3417 234.796 67.2934 234.584 67.2822 234.35C67.2711 234.12 67.2897 233.882 67.338 233.637C67.3825 233.391 67.442 233.165 67.5052 232.949L67.5349 232.864L64.6068 230.987L64.5994 230.98H64.5957ZM65.1456 230.578L67.6687 232.199L68.8837 227.561L65.1456 230.578Z" fill="white"/>
<path d="M77.1478 239.359L80.1948 233.529C80.2134 233.495 80.2394 233.481 80.2766 233.477C80.3137 233.477 80.3583 233.484 80.4029 233.499C80.4475 233.514 80.4921 233.533 80.533 233.555C80.5738 233.577 80.6036 233.592 80.6222 233.603C80.6667 233.625 80.7299 233.666 80.8005 233.715C80.8748 233.767 80.8971 233.822 80.8637 233.882L77.3708 240.559C77.3559 240.585 77.3374 240.604 77.3076 240.608C77.2779 240.615 77.2296 240.608 77.1553 240.585C77.1181 240.574 77.0884 240.563 77.0624 240.548C77.0364 240.533 77.0066 240.518 76.9732 240.503L76.806 240.414C76.6759 240.344 76.6016 240.266 76.5905 240.176L75.8956 232.392L72.8598 238.2C72.8412 238.233 72.8152 238.248 72.778 238.252C72.7409 238.252 72.6963 238.244 72.6517 238.229C72.6071 238.214 72.5588 238.196 72.5179 238.174C72.4733 238.151 72.4436 238.136 72.425 238.125C72.3842 238.103 72.3284 238.07 72.2541 238.018C72.1798 237.966 72.1575 237.91 72.1909 237.85L75.6838 231.173C75.7061 231.132 75.7396 231.117 75.7916 231.121C75.8436 231.128 75.8993 231.143 75.9551 231.169C76.0145 231.195 76.0703 231.225 76.1297 231.255C76.1892 231.284 76.2338 231.307 76.2598 231.322C76.3452 231.366 76.4084 231.411 76.4456 231.455C76.4827 231.5 76.5087 231.563 76.5162 231.645L77.1478 239.359Z" fill="white"/>
<path d="M86.794 243.654L89.3133 237.579C89.3282 237.546 89.3542 237.527 89.3913 237.52C89.4285 237.516 89.4731 237.52 89.5177 237.531C89.566 237.542 89.6106 237.557 89.6514 237.575C89.6923 237.594 89.722 237.605 89.7443 237.613C89.7926 237.631 89.8558 237.665 89.9338 237.709C90.0119 237.754 90.0379 237.806 90.0119 237.869L87.1247 244.829C87.1135 244.855 87.0949 244.873 87.0652 244.884C87.0392 244.892 86.9872 244.892 86.9129 244.877C86.8757 244.87 86.8423 244.862 86.8163 244.847C86.7903 244.836 86.7568 244.821 86.7234 244.81L86.5487 244.736C86.4112 244.68 86.3332 244.606 86.3146 244.517L84.9286 236.825L82.4204 242.882C82.4056 242.915 82.3796 242.934 82.3424 242.941C82.3052 242.945 82.2607 242.941 82.2161 242.93C82.1678 242.919 82.1232 242.904 82.0786 242.885C82.034 242.867 82.0005 242.852 81.982 242.844C81.9411 242.826 81.8816 242.796 81.8036 242.752C81.7256 242.707 81.6996 242.655 81.7256 242.592L84.6128 235.632C84.6314 235.591 84.6648 235.569 84.7168 235.573C84.7688 235.573 84.8246 235.584 84.884 235.606C84.9435 235.628 85.0029 235.651 85.0661 235.677C85.1293 235.703 85.1739 235.721 85.1999 235.732C85.2891 235.77 85.3559 235.81 85.3968 235.851C85.4377 235.892 85.4674 235.955 85.486 236.033L86.8014 243.662L86.794 243.654Z" fill="white"/>
<path d="M92.7546 244.829L91.5989 246.43C91.5469 246.501 91.4763 246.527 91.3871 246.516C91.35 246.512 91.2942 246.497 91.2236 246.475L91.0527 246.423C90.945 246.389 90.8855 246.341 90.8706 246.278C90.8558 246.215 90.8781 246.148 90.9412 246.073L95.6158 239.838C95.6826 239.749 95.7644 239.723 95.8647 239.753L96.4592 239.939C96.5596 239.968 96.6116 240.039 96.6153 240.15L96.816 246.263C96.816 246.319 96.816 246.393 96.8271 246.49C96.8345 246.586 96.842 246.69 96.8457 246.798C96.8531 246.895 96.868 246.995 96.8829 247.095C96.8977 247.199 96.92 247.281 96.946 247.344C96.9943 247.437 97.0575 247.512 97.1318 247.567C97.2061 247.623 97.2879 247.664 97.3733 247.69L97.652 247.768C97.7375 247.794 97.8007 247.827 97.8378 247.861C97.8787 247.898 97.8973 247.935 97.901 247.972C97.901 248.013 97.8973 248.061 97.8787 248.117C97.8601 248.173 97.8415 248.236 97.8192 248.307C97.7969 248.377 97.7003 248.411 97.5331 248.403C97.4477 248.403 97.3659 248.388 97.2804 248.366C97.1987 248.344 97.1281 248.325 97.0724 248.307C96.8457 248.236 96.6636 248.117 96.5299 247.95C96.3961 247.783 96.292 247.59 96.2214 247.37C96.1508 247.151 96.1062 246.917 96.0839 246.668C96.0654 246.419 96.0579 246.185 96.0654 245.962V245.869L92.7509 244.829H92.7546ZM93.1782 244.297L96.0394 245.193L95.9873 240.399L93.1782 244.297Z" fill="white"/>
<path d="M105.786 246.263L106.135 246.445C106.54 246.672 106.856 246.962 107.083 247.315C107.309 247.668 107.369 248.076 107.265 248.548C107.172 248.961 107.023 249.291 106.815 249.533C106.607 249.774 106.362 249.949 106.076 250.053C105.789 250.157 105.47 250.202 105.121 250.194C104.768 250.183 104.403 250.135 104.028 250.053L102.137 249.63C102.051 249.611 101.996 249.581 101.973 249.548C101.951 249.514 101.951 249.451 101.97 249.362L103.575 242.194C103.593 242.109 103.623 242.049 103.657 242.023C103.69 241.997 103.753 241.994 103.842 242.012L105.812 242.454C106.124 242.525 106.414 242.625 106.681 242.752C106.949 242.878 107.175 243.045 107.361 243.242C107.547 243.439 107.677 243.669 107.755 243.937C107.833 244.201 107.833 244.505 107.755 244.847C107.718 245.022 107.647 245.189 107.543 245.353C107.443 245.516 107.32 245.661 107.175 245.791C107.034 245.917 106.874 246.021 106.707 246.103C106.536 246.181 106.362 246.23 106.183 246.244L105.789 246.27V246.263H105.786ZM102.802 249.124L104.519 249.511C104.998 249.618 105.418 249.578 105.775 249.388C106.131 249.199 106.369 248.846 106.484 248.329C106.547 248.047 106.544 247.801 106.477 247.597C106.41 247.393 106.299 247.218 106.15 247.073C106.001 246.928 105.823 246.809 105.618 246.72C105.414 246.627 105.202 246.56 104.987 246.508L103.463 246.166L102.802 249.124ZM103.605 245.546L104.987 245.854C105.184 245.899 105.384 245.91 105.596 245.888C105.808 245.865 106.001 245.81 106.183 245.717C106.365 245.624 106.525 245.498 106.663 245.338C106.8 245.178 106.897 244.981 106.949 244.751C107.012 244.476 107.012 244.242 106.956 244.048C106.9 243.855 106.804 243.695 106.67 243.562C106.536 243.428 106.373 243.324 106.183 243.242C105.994 243.16 105.786 243.097 105.57 243.049L104.232 242.748L103.608 245.542H103.605V245.546Z" fill="white"/>
<path d="M111.037 251.369C110.981 251.339 110.959 251.298 110.966 251.257L112.152 243.814C112.163 243.755 112.207 243.725 112.289 243.725C112.341 243.718 112.393 243.718 112.441 243.725C112.49 243.732 112.542 243.74 112.601 243.751C112.69 243.766 112.768 243.788 112.839 243.822C112.895 243.851 112.917 243.892 112.913 243.933L111.728 251.376C111.721 251.428 111.672 251.458 111.59 251.469C111.538 251.476 111.486 251.476 111.438 251.469C111.39 251.461 111.338 251.454 111.278 251.443C111.197 251.428 111.119 251.406 111.041 251.372H111.037V251.369Z" fill="white"/>
<path d="M116.447 251.042C116.71 251.227 116.978 251.372 117.249 251.48C117.517 251.588 117.814 251.662 118.141 251.696C118.356 251.718 118.561 251.707 118.762 251.662C118.958 251.618 119.137 251.543 119.293 251.435C119.449 251.328 119.579 251.186 119.683 251.016C119.787 250.845 119.85 250.64 119.873 250.402C119.887 250.269 119.88 250.135 119.858 250.001C119.835 249.867 119.78 249.745 119.694 249.63C119.575 249.47 119.415 249.321 119.207 249.184C118.999 249.046 118.784 248.916 118.557 248.786C118.435 248.723 118.319 248.66 118.208 248.6C118.093 248.541 117.985 248.478 117.881 248.414C117.669 248.303 117.476 248.188 117.301 248.065C117.071 247.909 116.885 247.697 116.748 247.437C116.658 247.277 116.606 247.103 116.595 246.906C116.584 246.709 116.584 246.519 116.603 246.334C116.636 245.999 116.733 245.717 116.892 245.483C117.052 245.249 117.249 245.059 117.483 244.914C117.717 244.769 117.985 244.673 118.282 244.621C118.579 244.569 118.884 244.557 119.193 244.591C119.297 244.602 119.423 244.624 119.579 244.658C119.731 244.691 119.887 244.736 120.047 244.788C120.207 244.84 120.352 244.907 120.486 244.985C120.619 245.063 120.72 245.145 120.787 245.234C120.828 245.282 120.842 245.345 120.835 245.423C120.828 245.501 120.798 245.568 120.753 245.628C120.705 245.687 120.645 245.724 120.567 245.739C120.489 245.754 120.4 245.724 120.296 245.657C119.925 245.412 119.531 245.267 119.107 245.223C118.899 245.2 118.698 245.211 118.505 245.256C118.312 245.301 118.134 245.375 117.977 245.483C117.821 245.59 117.691 245.732 117.587 245.903C117.483 246.074 117.42 246.278 117.398 246.516C117.387 246.635 117.387 246.753 117.405 246.869C117.424 246.988 117.476 247.099 117.561 247.203C117.632 247.307 117.721 247.4 117.829 247.478C117.937 247.556 118.052 247.63 118.171 247.705C118.29 247.775 118.409 247.842 118.527 247.902C118.646 247.961 118.754 248.017 118.854 248.065C119.133 248.206 119.389 248.348 119.627 248.493C119.865 248.637 120.069 248.801 120.233 248.987C120.396 249.173 120.523 249.384 120.605 249.622C120.69 249.864 120.712 250.15 120.679 250.48C120.642 250.837 120.553 251.134 120.404 251.383C120.255 251.629 120.066 251.829 119.832 251.982C119.601 252.134 119.334 252.238 119.033 252.294C118.732 252.35 118.416 252.361 118.082 252.327C117.925 252.312 117.755 252.286 117.569 252.246C117.383 252.208 117.197 252.16 117.019 252.101C116.84 252.041 116.666 251.971 116.502 251.885C116.339 251.8 116.205 251.707 116.094 251.595C116.027 251.528 115.99 251.45 115.982 251.361C115.975 251.272 115.993 251.19 116.034 251.12C116.075 251.049 116.134 251.004 116.212 250.982C116.29 250.96 116.369 250.982 116.454 251.042H116.447Z" fill="white"/>
<path d="M129.512 251.855C129.794 252.008 130.077 252.127 130.355 252.205C130.634 252.283 130.939 252.32 131.266 252.32C131.481 252.32 131.686 252.283 131.879 252.219C132.072 252.156 132.239 252.06 132.384 251.937C132.529 251.814 132.64 251.658 132.726 251.476C132.808 251.294 132.849 251.082 132.849 250.845C132.849 250.711 132.826 250.581 132.789 250.451C132.752 250.321 132.681 250.206 132.585 250.101C132.451 249.953 132.273 249.823 132.05 249.711C131.83 249.6 131.6 249.492 131.362 249.388C131.236 249.336 131.113 249.288 130.994 249.239C130.875 249.191 130.76 249.143 130.649 249.091C130.426 249.005 130.218 248.909 130.032 248.808C129.787 248.678 129.579 248.489 129.411 248.247C129.307 248.099 129.237 247.931 129.2 247.738C129.162 247.545 129.144 247.355 129.144 247.17C129.144 246.835 129.203 246.542 129.337 246.293C129.467 246.044 129.642 245.832 129.861 245.665C130.077 245.494 130.333 245.367 130.619 245.286C130.909 245.2 131.21 245.156 131.522 245.156C131.626 245.156 131.756 245.163 131.912 245.178C132.068 245.197 132.228 245.223 132.392 245.256C132.555 245.293 132.707 245.341 132.849 245.401C132.99 245.464 133.098 245.535 133.176 245.616C133.22 245.661 133.242 245.72 133.242 245.799C133.242 245.877 133.224 245.947 133.183 246.01C133.142 246.074 133.086 246.118 133.012 246.14C132.938 246.163 132.845 246.144 132.733 246.088C132.336 245.884 131.927 245.784 131.503 245.787C131.295 245.787 131.098 245.825 130.909 245.888C130.719 245.951 130.552 246.047 130.411 246.17C130.266 246.293 130.155 246.449 130.069 246.631C129.984 246.813 129.947 247.025 129.947 247.263C129.947 247.381 129.965 247.497 129.995 247.612C130.025 247.727 130.091 247.831 130.188 247.928C130.27 248.024 130.37 248.106 130.485 248.169C130.601 248.236 130.723 248.296 130.849 248.355C130.976 248.414 131.102 248.466 131.225 248.515C131.347 248.563 131.463 248.604 131.567 248.641C131.856 248.749 132.131 248.864 132.384 248.979C132.637 249.094 132.856 249.236 133.042 249.403C133.228 249.57 133.373 249.767 133.484 249.994C133.595 250.22 133.651 250.506 133.655 250.841C133.655 251.198 133.599 251.506 133.48 251.77C133.361 252.034 133.194 252.249 132.979 252.428C132.763 252.606 132.51 252.736 132.221 252.825C131.927 252.914 131.615 252.959 131.28 252.963C131.124 252.963 130.95 252.955 130.76 252.94C130.571 252.926 130.381 252.896 130.195 252.859C130.01 252.818 129.831 252.766 129.66 252.703C129.489 252.636 129.345 252.558 129.222 252.461C129.148 252.402 129.103 252.327 129.084 252.238C129.07 252.149 129.077 252.067 129.11 251.993C129.144 251.918 129.196 251.866 129.27 251.837C129.345 251.807 129.426 251.818 129.515 251.866V251.855H129.512Z" fill="white"/>
<path d="M140.767 252.52C140.168 252.573 139.645 252.52 139.202 252.361C138.76 252.205 138.392 251.963 138.095 251.636C137.798 251.309 137.571 250.912 137.408 250.443C137.244 249.975 137.14 249.447 137.088 248.872C137.04 248.296 137.055 247.764 137.136 247.277C137.218 246.794 137.378 246.371 137.616 246.01C137.854 245.65 138.177 245.364 138.582 245.145C138.987 244.929 139.496 244.792 140.102 244.743C140.707 244.691 141.231 244.74 141.673 244.884C142.116 245.029 142.483 245.256 142.784 245.568C143.082 245.877 143.312 246.267 143.476 246.727C143.639 247.192 143.743 247.716 143.791 248.299C143.84 248.875 143.825 249.41 143.743 249.905C143.661 250.395 143.502 250.826 143.26 251.198C143.019 251.569 142.695 251.87 142.287 252.097C141.878 252.327 141.369 252.465 140.763 252.517L140.767 252.52ZM140.715 251.889C141.22 251.848 141.629 251.718 141.941 251.506C142.253 251.294 142.495 251.027 142.662 250.7C142.829 250.373 142.937 250.012 142.985 249.611C143.033 249.21 143.041 248.793 143.004 248.374C142.966 247.95 142.892 247.549 142.777 247.166C142.662 246.783 142.495 246.456 142.275 246.178C142.056 245.903 141.77 245.687 141.428 245.538C141.086 245.39 140.663 245.334 140.168 245.375C139.674 245.416 139.269 245.542 138.957 245.747C138.645 245.951 138.407 246.207 138.24 246.519C138.073 246.828 137.965 247.181 137.917 247.575C137.868 247.969 137.861 248.381 137.898 248.801C137.932 249.217 138.006 249.618 138.117 250.009C138.229 250.399 138.396 250.737 138.619 251.03C138.842 251.32 139.124 251.547 139.466 251.707C139.808 251.867 140.228 251.926 140.722 251.885H140.715V251.889Z" fill="white"/>
<path d="M152.249 244.238C152.119 244.186 151.974 244.138 151.814 244.097C151.654 244.056 151.487 244.022 151.316 244C151.034 243.974 150.74 243.985 150.439 244.037C149.904 244.126 149.473 244.279 149.15 244.494C148.827 244.71 148.581 244.974 148.425 245.289C148.269 245.605 148.18 245.969 148.165 246.378C148.15 246.787 148.18 247.233 148.262 247.708C148.34 248.169 148.455 248.593 148.607 248.972C148.76 249.355 148.96 249.67 149.209 249.927C149.458 250.183 149.77 250.362 150.142 250.462C150.514 250.566 150.963 250.57 151.491 250.48C151.907 250.41 152.267 250.291 152.568 250.127C152.869 249.964 153.118 249.797 153.315 249.626C153.33 249.626 153.356 249.637 153.39 249.663C153.423 249.693 153.46 249.726 153.497 249.774C153.535 249.819 153.572 249.867 153.605 249.916C153.639 249.964 153.661 250.005 153.665 250.042C153.668 250.072 153.642 250.12 153.587 250.191C153.553 250.228 153.523 250.258 153.494 250.284C153.464 250.31 153.434 250.339 153.401 250.369C153.17 250.558 152.888 250.715 152.554 250.841C152.219 250.967 151.9 251.053 151.591 251.105C150.956 251.212 150.402 251.22 149.934 251.127C149.466 251.034 149.068 250.845 148.734 250.562C148.399 250.28 148.135 249.908 147.927 249.451C147.719 248.994 147.567 248.452 147.459 247.827C147.359 247.24 147.333 246.701 147.377 246.207C147.422 245.713 147.548 245.278 147.76 244.903C147.972 244.528 148.277 244.216 148.674 243.963C149.072 243.71 149.577 243.532 150.183 243.428C150.328 243.402 150.491 243.383 150.666 243.368C150.841 243.354 151.015 243.346 151.194 243.346C151.372 243.346 151.543 243.357 151.714 243.383C151.885 243.409 152.033 243.443 152.163 243.487C152.193 243.498 152.227 243.51 152.253 243.521C152.282 243.536 152.308 243.55 152.334 243.569C152.386 243.606 152.412 243.632 152.416 243.647C152.42 243.677 152.416 243.725 152.405 243.788C152.394 243.855 152.375 243.926 152.353 244.007C152.342 244.041 152.331 244.078 152.312 244.126C152.293 244.175 152.271 244.208 152.245 244.227V244.238H152.249Z" fill="white"/>
<path d="M157.901 249.782C157.837 249.774 157.8 249.748 157.793 249.704L156.065 242.369C156.05 242.309 156.084 242.265 156.158 242.231C156.206 242.205 156.251 242.187 156.299 242.176C156.347 242.164 156.399 242.153 156.455 242.138C156.541 242.116 156.626 242.109 156.7 242.116C156.764 242.124 156.801 242.15 156.812 242.194L158.54 249.529C158.551 249.581 158.521 249.626 158.447 249.667C158.399 249.693 158.354 249.711 158.306 249.722C158.257 249.734 158.205 249.745 158.15 249.76C158.072 249.778 157.99 249.786 157.904 249.782H157.901Z" fill="white"/>
<path d="M163.218 246.363L163.173 248.336C163.17 248.422 163.125 248.489 163.047 248.526C163.014 248.545 162.962 248.563 162.891 248.585L162.72 248.637C162.612 248.671 162.534 248.663 162.49 248.623C162.441 248.578 162.423 248.511 162.43 248.414L162.746 240.63C162.75 240.518 162.802 240.448 162.902 240.418L163.5 240.232C163.601 240.202 163.683 240.232 163.749 240.318L167.38 245.241C167.41 245.286 167.454 245.345 167.517 245.42C167.58 245.494 167.644 245.576 167.71 245.665C167.774 245.739 167.837 245.813 167.907 245.891C167.978 245.969 168.041 246.021 168.101 246.059C168.194 246.107 168.286 246.133 168.379 246.137C168.472 246.14 168.561 246.126 168.647 246.1L168.922 246.003C169.007 245.977 169.074 245.966 169.13 245.973C169.182 245.981 169.223 245.999 169.245 246.029C169.271 246.059 169.29 246.103 169.308 246.159C169.327 246.215 169.345 246.282 169.368 246.352C169.39 246.423 169.331 246.505 169.186 246.594C169.115 246.638 169.037 246.675 168.959 246.705C168.877 246.735 168.81 246.757 168.755 246.776C168.528 246.846 168.312 246.85 168.104 246.791C167.9 246.731 167.703 246.627 167.521 246.486C167.335 246.345 167.168 246.178 167.008 245.984C166.852 245.791 166.715 245.602 166.592 245.412L166.544 245.334L163.222 246.36H163.218V246.363ZM163.266 245.683L166.131 244.799L163.37 240.879L163.266 245.683Z" fill="white"/>
<path d="M173.633 244.312L176.617 243.131C176.658 243.116 176.699 243.127 176.732 243.168C176.77 243.209 176.803 243.261 176.833 243.328C176.863 243.391 176.885 243.454 176.903 243.517C176.918 243.58 176.926 243.621 176.918 243.647C176.918 243.662 176.915 243.677 176.911 243.688C176.907 243.699 176.889 243.71 176.851 243.721L173.358 245.107C173.277 245.141 173.214 245.148 173.176 245.133C173.139 245.119 173.102 245.066 173.069 244.985L170.323 238.062C170.304 238.014 170.326 237.966 170.397 237.914C170.442 237.88 170.482 237.854 170.527 237.835C170.572 237.817 170.62 237.798 170.676 237.776C170.757 237.743 170.839 237.724 170.917 237.717C170.98 237.717 171.021 237.735 171.036 237.776L173.63 244.316L173.633 244.312Z" fill="white"/>
<path d="M190.66 229.118C190.518 229.118 190.366 229.122 190.203 229.144C190.039 229.163 189.872 229.192 189.705 229.233C189.43 229.311 189.162 229.427 188.898 229.583C188.43 229.858 188.084 230.155 187.858 230.471C187.631 230.787 187.501 231.121 187.468 231.474C187.434 231.827 187.483 232.199 187.616 232.585C187.746 232.975 187.936 233.376 188.181 233.793C188.419 234.194 188.679 234.547 188.958 234.848C189.236 235.149 189.537 235.376 189.864 235.524C190.191 235.673 190.544 235.729 190.927 235.691C191.31 235.654 191.733 235.498 192.194 235.227C192.558 235.011 192.852 234.774 193.071 234.514C193.29 234.253 193.465 234.008 193.588 233.778C193.599 233.77 193.629 233.774 193.669 233.785C193.71 233.8 193.759 233.822 193.811 233.848C193.863 233.878 193.915 233.908 193.963 233.941C194.011 233.971 194.045 234.004 194.063 234.038C194.078 234.064 194.071 234.12 194.045 234.205C194.026 234.25 194.011 234.291 193.993 234.328C193.974 234.365 193.955 234.402 193.937 234.439C193.788 234.699 193.58 234.948 193.316 235.182C193.049 235.416 192.781 235.617 192.514 235.773C191.956 236.104 191.444 236.308 190.972 236.39C190.5 236.472 190.061 236.438 189.649 236.293C189.24 236.148 188.854 235.9 188.497 235.543C188.14 235.19 187.802 234.74 187.479 234.198C187.174 233.685 186.955 233.191 186.821 232.715C186.684 232.239 186.65 231.786 186.713 231.363C186.777 230.939 186.947 230.534 187.23 230.155C187.512 229.776 187.917 229.43 188.449 229.114C188.575 229.04 188.72 228.962 188.876 228.888C189.032 228.81 189.196 228.743 189.359 228.68C189.523 228.617 189.69 228.564 189.857 228.527C190.024 228.49 190.176 228.468 190.314 228.464H190.411C190.44 228.464 190.474 228.472 190.503 228.479C190.563 228.494 190.6 228.509 190.608 228.524C190.622 228.55 190.637 228.594 190.648 228.661C190.66 228.728 190.671 228.802 190.678 228.884C190.678 228.917 190.678 228.958 190.682 229.01C190.682 229.062 190.674 229.103 190.656 229.129V229.118H190.66Z" fill="white"/>
<path d="M197.92 231.548L200.554 229.716C200.591 229.69 200.632 229.694 200.677 229.728C200.721 229.761 200.766 229.806 200.811 229.861C200.855 229.917 200.889 229.973 200.922 230.029C200.952 230.084 200.967 230.125 200.967 230.151V230.192C200.967 230.192 200.948 230.218 200.918 230.24L197.834 232.384C197.76 232.436 197.704 232.459 197.663 232.451C197.622 232.444 197.574 232.403 197.526 232.329L193.275 226.212C193.245 226.172 193.256 226.116 193.312 226.053C193.345 226.012 193.383 225.975 193.423 225.949C193.464 225.923 193.509 225.889 193.557 225.856C193.632 225.804 193.702 225.766 193.776 225.744C193.84 225.729 193.881 225.74 193.907 225.774L197.92 231.548Z" fill="white"/>
<path d="M202.669 225.818L199.406 221.817C199.376 221.783 199.387 221.731 199.436 221.66C199.484 221.59 199.547 221.527 199.618 221.467C199.688 221.408 199.763 221.363 199.841 221.326C199.919 221.293 199.971 221.293 200.001 221.326L203.263 225.328C203.46 225.57 203.683 225.74 203.932 225.841C204.181 225.941 204.434 225.982 204.686 225.963C204.943 225.949 205.195 225.885 205.444 225.774C205.693 225.662 205.924 225.529 206.124 225.365C206.325 225.202 206.503 225.008 206.659 224.785C206.815 224.563 206.927 224.325 206.994 224.076C207.061 223.827 207.072 223.567 207.027 223.307C206.983 223.046 206.86 222.794 206.663 222.552L203.408 218.561C203.378 218.528 203.389 218.472 203.438 218.402C203.486 218.331 203.545 218.264 203.616 218.205C203.687 218.145 203.761 218.101 203.839 218.064C203.917 218.03 203.973 218.034 204.006 218.071L207.261 222.062C207.544 222.407 207.726 222.753 207.811 223.095C207.897 223.44 207.897 223.775 207.815 224.098C207.733 224.421 207.585 224.733 207.362 225.034C207.142 225.335 206.867 225.614 206.548 225.878C206.225 226.142 205.894 226.35 205.556 226.506C205.218 226.662 204.883 226.747 204.549 226.759C204.214 226.77 203.887 226.707 203.571 226.558C203.256 226.409 202.951 226.16 202.665 225.807V225.818H202.669Z" fill="white"/>
<path d="M211.78 215.76L212.122 215.57C212.538 215.358 212.95 215.254 213.37 215.258C213.786 215.266 214.165 215.44 214.5 215.789C214.793 216.094 214.983 216.403 215.072 216.707C215.161 217.016 215.169 217.317 215.098 217.61C215.027 217.908 214.89 218.197 214.686 218.483C214.481 218.77 214.243 219.048 213.965 219.316L212.568 220.661C212.504 220.724 212.449 220.754 212.408 220.754C212.367 220.754 212.315 220.72 212.252 220.657L207.161 215.362C207.098 215.299 207.068 215.243 207.064 215.199C207.064 215.154 207.094 215.102 207.157 215.039L208.61 213.642C208.841 213.419 209.082 213.233 209.339 213.081C209.595 212.928 209.855 212.828 210.123 212.783C210.39 212.739 210.654 212.757 210.918 212.839C211.182 212.921 211.434 213.088 211.676 213.337C211.798 213.467 211.902 213.616 211.98 213.794C212.062 213.969 212.114 214.151 212.144 214.34C212.17 214.53 212.174 214.719 212.144 214.905C212.114 215.091 212.059 215.262 211.973 215.418L211.776 215.76H211.78ZM209.978 217.183L211 216.202C211.144 216.064 211.267 215.901 211.364 215.711C211.46 215.522 211.523 215.329 211.546 215.128C211.568 214.927 211.549 214.723 211.494 214.519C211.438 214.314 211.327 214.128 211.163 213.958C210.966 213.753 210.773 213.623 210.583 213.564C210.394 213.504 210.204 213.493 210.019 213.534C209.833 213.575 209.654 213.649 209.483 213.764C209.309 213.88 209.142 214.013 208.982 214.169L207.993 215.121L209.978 217.187V217.183ZM212.519 219.825L213.79 218.602C214.143 218.261 214.34 217.889 214.381 217.488C214.422 217.083 214.258 216.692 213.89 216.31C213.69 216.102 213.485 215.968 213.277 215.912C213.069 215.856 212.861 215.849 212.657 215.897C212.452 215.942 212.255 216.027 212.07 216.146C211.88 216.265 211.706 216.403 211.546 216.559L210.42 217.64L212.523 219.825H212.519Z" fill="white"/>
<path d="M65.6331 32.4838L66.0642 34.4086C66.079 34.494 66.053 34.5647 65.9861 34.6241C65.9564 34.6501 65.9118 34.6836 65.8487 34.7207L65.6963 34.8136C65.5997 34.8731 65.5254 34.8842 65.4659 34.8545C65.4065 34.8248 65.373 34.7616 65.3582 34.665L63.7938 27.0327C63.7715 26.9249 63.8049 26.8432 63.8941 26.7911L64.4292 26.4679C64.5184 26.4158 64.6039 26.4233 64.693 26.4939L69.401 30.3992C69.4419 30.4364 69.4976 30.4847 69.5756 30.5404C69.6537 30.5961 69.7354 30.663 69.8209 30.7299C69.8989 30.7856 69.9807 30.8451 70.0661 30.9008C70.1516 30.9566 70.2296 30.9975 70.2928 31.0197C70.3931 31.0458 70.4934 31.0458 70.5826 31.0272C70.6755 31.0049 70.7573 30.9714 70.8353 30.9269L71.0768 30.7671C71.1549 30.7225 71.218 30.6965 71.2701 30.689C71.3221 30.6816 71.3667 30.689 71.3964 30.7151C71.4298 30.7411 71.4596 30.7782 71.4893 30.8265C71.519 30.8785 71.5562 30.9343 71.5933 30.9975C71.6305 31.0606 71.5933 31.1535 71.4744 31.2761C71.415 31.3393 71.3518 31.3913 71.2812 31.4396C71.2106 31.4879 71.1474 31.5251 71.0991 31.5548C70.8948 31.6774 70.6867 31.7332 70.4711 31.7258C70.2556 31.7183 70.0438 31.6626 69.832 31.5697C69.6202 31.4768 69.4159 31.3542 69.2152 31.2055C69.0183 31.0569 68.8362 30.9046 68.6727 30.7522L68.6095 30.689L65.6294 32.4838H65.6331ZM65.5142 31.8112L68.0819 30.2654L64.4589 27.1256L65.5142 31.8149V31.8112Z" fill="white"/>
<path d="M73.7627 27.237L71.4775 22.6108C71.4589 22.5699 71.4775 22.5216 71.5444 22.4659C71.6113 22.4102 71.6819 22.3619 71.7636 22.321C71.8454 22.2801 71.9308 22.2504 72.0126 22.2355C72.0943 22.2206 72.1464 22.2355 72.1687 22.2727L74.4539 26.9026C74.5914 27.1813 74.7697 27.3968 74.9927 27.5529C75.2156 27.7089 75.4497 27.8018 75.7024 27.8427C75.9551 27.8836 76.2152 27.8799 76.4864 27.8278C76.754 27.7795 77.0067 27.6941 77.2408 27.5789C77.4749 27.4637 77.6904 27.3151 77.891 27.133C78.0917 26.9509 78.2515 26.7465 78.3741 26.5162C78.4967 26.2858 78.5636 26.0368 78.5785 25.773C78.5933 25.5092 78.5302 25.2379 78.3927 24.9555L76.1111 20.3367C76.0926 20.2958 76.1111 20.2475 76.1743 20.1881C76.2375 20.1286 76.3081 20.0803 76.3898 20.0357C76.4716 19.9949 76.557 19.9651 76.6388 19.9503C76.7205 19.9354 76.7763 19.9503 76.7986 19.9949L79.0764 24.6136C79.2733 25.015 79.3736 25.3903 79.3811 25.7433C79.3811 26.0963 79.3142 26.4233 79.1618 26.7205C79.0095 27.0178 78.794 27.289 78.5116 27.5306C78.2292 27.7721 77.9022 27.9876 77.5269 28.1697C77.1553 28.3555 76.7837 28.4855 76.4196 28.5599C76.0554 28.6342 75.7098 28.6416 75.3791 28.5822C75.0521 28.519 74.7474 28.3815 74.4725 28.166C74.1975 27.9505 73.956 27.6383 73.7553 27.2333H73.7627V27.237Z" fill="white"/>
<path d="M82.8331 17.9437L80.7225 18.7909C80.689 18.8058 80.6445 18.7909 80.5961 18.7315C80.5478 18.6795 80.507 18.6163 80.4772 18.5457C80.4475 18.4751 80.4289 18.4045 80.4215 18.3339C80.4141 18.2633 80.4327 18.2224 80.481 18.2001L85.3821 16.227C85.423 16.2122 85.4676 16.227 85.5196 16.279C85.5679 16.3311 85.6088 16.3942 85.6385 16.4648C85.6683 16.5354 85.6831 16.6098 85.6868 16.6804C85.6868 16.751 85.6683 16.7955 85.62 16.8141L83.5428 17.6502L86.1699 24.1752C86.1922 24.2309 86.1699 24.2792 86.0993 24.3238C86.0547 24.3573 86.0138 24.3833 85.9692 24.4018C85.9247 24.4204 85.8763 24.439 85.828 24.4576C85.7463 24.491 85.6608 24.5133 85.5791 24.5208C85.5159 24.5208 85.475 24.5022 85.4602 24.4613L82.8368 17.9363V17.9437H82.8331Z" fill="white"/>
<path d="M91.3913 18.4937L92.454 21.864C92.4689 21.9123 92.4429 21.9606 92.3723 22.0052C92.3277 22.0349 92.2831 22.0572 92.2348 22.0721C92.1865 22.0869 92.1382 22.1018 92.0787 22.1204C92.0379 22.1352 91.971 22.1501 91.8818 22.165C91.7926 22.1798 91.7406 22.1575 91.7183 22.0944L89.4516 14.9079C89.4405 14.8708 89.4516 14.8411 89.4739 14.815C89.4999 14.7853 89.5371 14.763 89.578 14.7407C89.6226 14.7184 89.6672 14.6998 89.7117 14.685C89.7563 14.6701 89.7935 14.659 89.8232 14.6515C89.8641 14.6367 89.931 14.6218 90.0202 14.607C90.1093 14.5921 90.1614 14.6144 90.1837 14.6776L91.1944 17.888L95.2966 16.5949L94.2859 13.3844C94.2748 13.3473 94.2859 13.3176 94.3082 13.2915C94.3342 13.2618 94.3714 13.2395 94.4123 13.2172C94.4569 13.1949 94.5015 13.1764 94.546 13.1615C94.5906 13.1466 94.6241 13.1355 94.6464 13.1281C94.6947 13.1132 94.7653 13.0983 94.8545 13.0797C94.9436 13.0649 94.9957 13.0872 95.018 13.1503L97.2846 20.3368C97.2958 20.3739 97.2846 20.4036 97.2623 20.4297C97.2363 20.4594 97.1991 20.4817 97.1583 20.504C97.1137 20.5263 97.0691 20.5449 97.0245 20.5597C96.9799 20.5746 96.9428 20.5857 96.913 20.5932C96.8722 20.608 96.8053 20.6229 96.7161 20.6377C96.6269 20.6526 96.5749 20.6303 96.5526 20.5671L95.4899 17.1969L91.3876 18.49L91.3913 18.4937Z" fill="white"/>
<path d="M102.212 18.5531L105.522 17.784C105.574 17.7728 105.615 17.7951 105.652 17.8546C105.664 17.8731 105.678 17.914 105.697 17.9697C105.716 18.0255 105.727 18.0849 105.738 18.1481C105.749 18.2113 105.749 18.267 105.742 18.3116C105.734 18.3599 105.708 18.3896 105.664 18.3971L101.821 19.2889C101.736 19.3074 101.673 19.3074 101.639 19.2889C101.602 19.2666 101.576 19.2108 101.554 19.1254L99.8928 11.9687C99.8743 11.8832 99.8743 11.82 99.8928 11.7792C99.9114 11.7383 99.9672 11.7086 100.056 11.69L103.891 10.7982C103.951 10.7833 103.991 10.8056 104.014 10.8614C104.04 10.9171 104.055 10.9654 104.066 11.01C104.077 11.0546 104.088 11.1103 104.099 11.1846C104.114 11.259 104.114 11.3147 104.11 11.3556C104.107 11.3704 104.103 11.3853 104.095 11.3927C104.088 11.4002 104.069 11.4113 104.032 11.4187L100.733 12.1842L101.383 14.9748L104.359 14.2836C104.419 14.2688 104.456 14.2911 104.478 14.3468C104.5 14.4025 104.515 14.4546 104.523 14.4954L104.56 14.6589C104.579 14.7333 104.582 14.7927 104.579 14.8373C104.571 14.8707 104.545 14.8893 104.5 14.9005L101.524 15.5916L102.212 18.5457V18.5531Z" fill="white"/>
<path d="M114.377 15.7886L113.381 9.28585C113.378 9.24869 113.389 9.21896 113.418 9.19667C113.448 9.17437 113.485 9.15579 113.534 9.14093C113.578 9.12606 113.627 9.11492 113.671 9.10749C113.716 9.10005 113.749 9.09634 113.771 9.09262C113.823 9.08519 113.894 9.07776 113.983 9.07776C114.072 9.07776 114.124 9.10749 114.132 9.17437L115.273 16.6246C115.276 16.6543 115.273 16.6803 115.25 16.7026C115.228 16.7249 115.187 16.7472 115.113 16.7732C115.076 16.7881 115.046 16.7955 115.016 16.7993C114.987 16.7993 114.953 16.8104 114.916 16.8141L114.73 16.8438C114.581 16.8661 114.477 16.8438 114.414 16.7807L109.242 10.9208L110.234 17.4012C110.238 17.4384 110.227 17.4681 110.197 17.4904C110.167 17.5127 110.126 17.535 110.082 17.5461C110.033 17.561 109.989 17.5721 109.94 17.5796C109.892 17.587 109.859 17.5907 109.836 17.5944C109.792 17.6019 109.725 17.6056 109.636 17.6093C109.547 17.613 109.495 17.5796 109.487 17.5127L108.346 10.0625C108.339 10.0179 108.357 9.98442 108.402 9.95841C108.447 9.9324 108.499 9.91382 108.562 9.89896C108.625 9.88409 108.688 9.87295 108.755 9.86551C108.822 9.85437 108.87 9.84694 108.896 9.84322C108.993 9.82836 109.067 9.82836 109.127 9.84322C109.186 9.85808 109.242 9.89153 109.294 9.95098L114.373 15.7923H114.377V15.7886Z" fill="white"/>
<path d="M120.582 9.03688L118.315 9.21152C118.278 9.21152 118.245 9.1818 118.215 9.11863C118.185 9.05546 118.167 8.98114 118.159 8.90311C118.152 8.82507 118.159 8.75076 118.17 8.68387C118.185 8.61699 118.215 8.57983 118.267 8.57611L123.536 8.1748C123.581 8.1748 123.618 8.20082 123.648 8.2677C123.677 8.33087 123.696 8.40519 123.703 8.48322C123.711 8.56125 123.703 8.63557 123.688 8.70245C123.67 8.76934 123.636 8.8065 123.584 8.81021L121.351 8.98114L121.886 15.9966C121.89 16.0561 121.853 16.097 121.771 16.1155C121.719 16.1341 121.671 16.1453 121.622 16.149C121.574 16.1527 121.526 16.1564 121.474 16.1601C121.385 16.1676 121.299 16.1601 121.217 16.1453C121.158 16.1267 121.124 16.097 121.121 16.0524L120.586 9.03688H120.582Z" fill="white"/>
<path d="M127.914 15.8034C127.855 15.7811 127.825 15.7514 127.821 15.7068L127.665 8.17111C127.665 8.11166 127.702 8.0745 127.784 8.05592C127.836 8.04105 127.884 8.02991 127.933 8.02991H128.092C128.182 8.02991 128.263 8.03734 128.338 8.05963C128.397 8.08193 128.427 8.11537 128.43 8.15625L128.587 15.692C128.587 15.744 128.546 15.7811 128.468 15.8071C128.416 15.822 128.367 15.8332 128.319 15.8332H128.159C128.077 15.8332 127.996 15.8257 127.914 15.8034Z" fill="white"/>
<path d="M138.225 9.32676C138.11 9.24872 137.976 9.17069 137.827 9.10009C137.679 9.02577 137.523 8.9626 137.359 8.90315C137.088 8.81769 136.798 8.76938 136.493 8.75823C135.951 8.73966 135.498 8.79911 135.137 8.94031C134.773 9.08151 134.483 9.29331 134.264 9.572C134.045 9.85069 133.885 10.1888 133.785 10.5864C133.684 10.984 133.625 11.4225 133.606 11.9055C133.588 12.3737 133.614 12.8085 133.684 13.2135C133.755 13.6185 133.885 13.9715 134.078 14.2725C134.271 14.5735 134.539 14.8113 134.881 14.9897C135.223 15.168 135.661 15.2647 136.196 15.2832C136.62 15.2981 136.995 15.2572 137.322 15.1569C137.649 15.0566 137.928 14.9451 138.154 14.8188C138.169 14.8188 138.191 14.8373 138.218 14.8708C138.247 14.9042 138.273 14.9488 138.303 15.0008C138.329 15.0529 138.355 15.1086 138.381 15.1606C138.403 15.2126 138.418 15.2572 138.414 15.2944C138.414 15.3241 138.377 15.3687 138.31 15.4244C138.273 15.4542 138.236 15.4765 138.203 15.4988C138.169 15.521 138.132 15.5396 138.095 15.5619C137.831 15.6994 137.523 15.796 137.17 15.8518C136.817 15.9075 136.486 15.9261 136.174 15.9149C135.527 15.8889 134.985 15.7849 134.546 15.5991C134.108 15.4133 133.755 15.1457 133.487 14.8002C133.22 14.4546 133.034 14.0384 132.926 13.5479C132.818 13.0575 132.778 12.4964 132.8 11.8647C132.822 11.2701 132.904 10.7351 133.049 10.2631C133.194 9.79124 133.406 9.38993 133.692 9.06665C133.974 8.74337 134.338 8.49813 134.78 8.33091C135.223 8.1637 135.75 8.0931 136.367 8.1154C136.516 8.11911 136.675 8.13398 136.85 8.15627C137.025 8.17857 137.199 8.20829 137.37 8.24173C137.545 8.27889 137.712 8.3272 137.872 8.38294C138.032 8.44239 138.173 8.50556 138.288 8.57616C138.318 8.59102 138.344 8.6096 138.37 8.62818C138.396 8.64676 138.418 8.66905 138.44 8.69135C138.485 8.73594 138.504 8.76938 138.504 8.78425C138.504 8.81397 138.489 8.85856 138.466 8.92173C138.44 8.9849 138.411 9.05179 138.37 9.1261C138.355 9.15583 138.333 9.19299 138.303 9.23386C138.273 9.27845 138.247 9.30818 138.218 9.31933L138.225 9.32676Z" fill="white"/>
<path d="M148.191 13.3473L147.674 16.8439C147.667 16.8959 147.622 16.9256 147.537 16.9368C147.473 16.9442 147.421 16.9442 147.381 16.9368L147.225 16.9145C147.143 16.9033 147.065 16.881 146.987 16.8476C146.931 16.8178 146.905 16.7807 146.912 16.7361L147.997 9.37875C148.012 9.28957 148.035 9.23383 148.068 9.2041C148.101 9.17438 148.165 9.16695 148.254 9.18181L151.773 9.69831C151.832 9.70574 151.862 9.7429 151.858 9.80235C151.854 9.86181 151.854 9.91383 151.847 9.95842C151.843 9.98814 151.84 10.0253 151.836 10.0699C151.836 10.1145 151.825 10.1554 151.817 10.1962C151.806 10.2371 151.791 10.2705 151.769 10.2966C151.747 10.3226 151.717 10.3337 151.68 10.33L148.703 9.89153L148.287 12.7267L151.067 13.1355C151.126 13.1429 151.156 13.18 151.152 13.2395C151.152 13.299 151.148 13.351 151.141 13.3956L151.115 13.5628C151.108 13.6074 151.096 13.6557 151.082 13.704C151.067 13.756 151.03 13.7746 150.97 13.7671L148.191 13.3584V13.3473Z" fill="white"/>
<path d="M155.08 17.6019L158.22 18.2708C158.265 18.2782 158.291 18.3116 158.298 18.3674C158.306 18.4231 158.302 18.4863 158.291 18.5532C158.28 18.6238 158.265 18.6869 158.242 18.7501C158.22 18.8133 158.201 18.8504 158.183 18.869C158.172 18.8839 158.164 18.8913 158.153 18.8987C158.142 18.9062 158.123 18.8987 158.086 18.8987L154.411 18.1184C154.322 18.0998 154.27 18.0738 154.248 18.0367C154.226 18.0032 154.222 17.94 154.24 17.8546L155.79 10.5716C155.801 10.5195 155.849 10.4935 155.935 10.4898C155.987 10.4898 156.039 10.4898 156.087 10.501C156.135 10.5121 156.188 10.5232 156.247 10.5344C156.332 10.553 156.41 10.579 156.481 10.6199C156.533 10.6533 156.555 10.6942 156.548 10.7351L155.084 17.6131V17.6019H155.08Z" fill="white"/>
<path d="M162.846 17.9921L161.724 19.6159C161.672 19.6865 161.602 19.7162 161.512 19.7051C161.475 19.7051 161.419 19.6902 161.349 19.6679L161.178 19.6196C161.07 19.5899 161.011 19.5416 160.992 19.4784C160.977 19.4152 160.996 19.3446 161.059 19.2703L165.607 12.9422C165.67 12.8531 165.756 12.8233 165.856 12.8531L166.454 13.0277C166.555 13.0574 166.607 13.128 166.614 13.2358L166.937 19.3446C166.937 19.4004 166.941 19.4747 166.952 19.5713C166.963 19.6679 166.971 19.7719 166.978 19.8797C166.989 19.9763 167.004 20.0729 167.019 20.177C167.034 20.2773 167.06 20.359 167.086 20.4222C167.138 20.5151 167.201 20.5857 167.279 20.6414C167.357 20.6935 167.439 20.7343 167.525 20.7604L167.807 20.831C167.892 20.857 167.956 20.8867 167.996 20.9201C168.037 20.9536 168.06 20.9945 168.063 21.0316C168.063 21.0725 168.063 21.1208 168.045 21.1765C168.026 21.2323 168.011 21.2992 167.989 21.3698C167.967 21.4404 167.874 21.4738 167.703 21.4738C167.617 21.4738 167.536 21.4626 167.45 21.4404C167.365 21.4181 167.298 21.4032 167.238 21.3846C167.008 21.3177 166.826 21.2025 166.689 21.039C166.551 20.8755 166.443 20.6823 166.369 20.4631C166.295 20.2439 166.243 20.0098 166.22 19.7645C166.194 19.5156 166.183 19.2815 166.187 19.0585V18.9656L162.85 17.9921H162.846ZM163.259 17.4495L166.139 18.2893L165.99 13.4959L163.259 17.4495Z" fill="white"/>
<path d="M173.515 22.9378L178.167 17.1374C178.193 17.1077 178.241 17.0966 178.308 17.1077C178.375 17.1189 178.445 17.1337 178.52 17.1597C178.594 17.1857 178.665 17.2118 178.735 17.2415C178.802 17.2712 178.851 17.2898 178.88 17.3009C178.943 17.3418 178.969 17.3715 178.958 17.3938C178.947 17.4161 178.917 17.457 178.873 17.509L173.816 23.5955C173.79 23.6253 173.741 23.6364 173.678 23.6327C173.611 23.6327 173.563 23.6178 173.526 23.6067L173.128 23.4581C173.087 23.4432 173.028 23.4172 172.95 23.38C172.872 23.3429 172.838 23.2946 172.846 23.2314L173.058 15.3055C173.058 15.2201 173.102 15.1755 173.184 15.1755C173.266 15.1755 173.355 15.1978 173.451 15.2424C173.544 15.287 173.633 15.3353 173.715 15.3947C173.797 15.4542 173.838 15.495 173.834 15.5173L173.515 22.9378Z" fill="white"/>
<path d="M182.013 27.211C181.467 26.9546 181.043 26.6499 180.738 26.2932C180.434 25.9365 180.233 25.5426 180.14 25.1153C180.047 24.6843 180.047 24.2272 180.14 23.7367C180.233 23.2462 180.404 22.7409 180.653 22.2169C180.898 21.693 181.18 21.2397 181.493 20.8644C181.805 20.4854 182.154 20.1992 182.54 20.0097C182.927 19.8202 183.35 19.7311 183.811 19.7459C184.272 19.7608 184.777 19.8983 185.331 20.1584C185.881 20.4185 186.312 20.7195 186.62 21.0688C186.929 21.4143 187.137 21.7971 187.237 22.2169C187.341 22.6331 187.345 23.0865 187.256 23.5695C187.167 24.0526 186.992 24.5579 186.743 25.0893C186.498 25.6132 186.215 26.0703 185.9 26.453C185.584 26.8357 185.227 27.1293 184.833 27.3299C184.439 27.5306 184.008 27.6272 183.54 27.6198C183.072 27.6123 182.563 27.4786 182.009 27.2222V27.211H182.013ZM182.284 26.6351C182.741 26.8506 183.157 26.9435 183.536 26.9175C183.915 26.8915 184.257 26.7763 184.562 26.5793C184.867 26.3824 185.141 26.1223 185.387 25.7953C185.628 25.472 185.84 25.1153 186.022 24.7326C186.201 24.3498 186.338 23.9634 186.431 23.5769C186.524 23.1905 186.542 22.8189 186.49 22.4696C186.438 22.1203 186.297 21.7933 186.074 21.4924C185.851 21.1914 185.513 20.935 185.063 20.7195C184.614 20.5077 184.201 20.4111 183.83 20.4333C183.458 20.4556 183.124 20.5597 182.823 20.7418C182.522 20.9238 182.254 21.1765 182.013 21.4924C181.771 21.8119 181.563 22.1612 181.381 22.5439C181.203 22.9192 181.065 23.3057 180.969 23.6996C180.872 24.0934 180.846 24.4725 180.891 24.8329C180.939 25.197 181.069 25.5315 181.284 25.8436C181.5 26.1557 181.834 26.4158 182.284 26.6276V26.6351Z" fill="white"/>
<path d="M189.66 28.2403L192.242 23.7702C192.264 23.733 192.317 23.7219 192.398 23.7442C192.48 23.7665 192.562 23.7999 192.643 23.8482C192.725 23.8928 192.796 23.9485 192.855 24.008C192.915 24.0674 192.933 24.1157 192.911 24.1566L190.329 28.6268C190.172 28.898 190.091 29.1656 190.087 29.4331C190.083 29.7006 190.132 29.9496 190.239 30.1837C190.343 30.4178 190.492 30.6296 190.685 30.8265C190.878 31.0235 191.087 31.187 191.309 31.317C191.536 31.4471 191.778 31.5437 192.042 31.6106C192.305 31.6775 192.565 31.696 192.826 31.67C193.086 31.644 193.327 31.5623 193.558 31.4285C193.784 31.2947 193.977 31.0904 194.134 30.8228L196.709 26.3638C196.731 26.3267 196.783 26.3155 196.868 26.3341C196.95 26.3527 197.036 26.3861 197.114 26.4307C197.195 26.4753 197.262 26.531 197.325 26.5905C197.385 26.6499 197.403 26.702 197.377 26.7466L194.802 31.2056C194.579 31.592 194.323 31.8856 194.029 32.0862C193.736 32.2869 193.428 32.4058 193.093 32.4466C192.759 32.4875 192.417 32.4578 192.056 32.3575C191.696 32.2571 191.339 32.1048 190.979 31.8967C190.618 31.6886 190.306 31.4545 190.039 31.1944C189.771 30.9343 189.574 30.6482 189.444 30.3435C189.314 30.0351 189.258 29.7081 189.288 29.3588C189.314 29.0095 189.44 28.6379 189.667 28.244H189.66V28.2403Z" fill="white"/>
<path d="M199.759 33.2158L197.834 35.9915C197.804 36.0361 197.749 36.0398 197.671 36.0138C197.615 35.9915 197.567 35.9692 197.53 35.9432L197.403 35.854C197.336 35.8094 197.277 35.75 197.221 35.6868C197.184 35.6348 197.18 35.5902 197.206 35.5531L201.442 29.4442C201.494 29.3699 201.539 29.329 201.583 29.3179C201.628 29.3067 201.684 29.329 201.758 29.3773L203.315 30.4586C203.601 30.6593 203.858 30.8674 204.084 31.0866C204.311 31.3059 204.482 31.5437 204.601 31.7963C204.72 32.049 204.764 32.3166 204.742 32.599C204.72 32.8814 204.593 33.1824 204.37 33.5093C204.121 33.8698 203.817 34.1225 203.464 34.2711C203.107 34.4197 202.721 34.4457 202.297 34.3491L202.037 34.2934L202.167 34.5201C202.237 34.6427 202.282 34.7727 202.301 34.9102C202.319 35.0514 202.327 35.1926 202.315 35.3375C202.308 35.4787 202.286 35.6274 202.256 35.776C202.226 35.9246 202.189 36.0733 202.152 36.2182C202.13 36.3036 202.1 36.4188 202.063 36.5712C202.026 36.7235 201.988 36.8796 201.948 37.0394C201.91 37.1954 201.877 37.3478 201.847 37.5001C201.818 37.6525 201.806 37.7677 201.821 37.8494C201.836 37.9312 201.862 38.0018 201.899 38.0612C201.936 38.117 201.977 38.1727 202.026 38.221C202.07 38.2619 202.119 38.299 202.171 38.3362C202.223 38.3734 202.275 38.4105 202.33 38.4477C202.464 38.5406 202.531 38.6223 202.535 38.6929C202.535 38.7635 202.483 38.875 202.371 39.0348C202.33 39.0942 202.226 39.098 202.067 39.0422C201.988 39.0125 201.91 38.9753 201.84 38.9307C201.766 38.8861 201.706 38.8453 201.658 38.8118C201.494 38.6966 201.368 38.5703 201.286 38.4254C201.204 38.2805 201.152 38.1318 201.126 37.9683C201.104 37.8086 201.1 37.6376 201.123 37.4556C201.145 37.2772 201.175 37.0877 201.219 36.8945C201.256 36.6938 201.305 36.5006 201.361 36.3074C201.416 36.1141 201.461 35.9246 201.491 35.7388C201.52 35.5531 201.539 35.371 201.539 35.1963C201.539 35.0217 201.509 34.8582 201.446 34.7058C201.372 34.5275 201.26 34.3677 201.115 34.2265C200.97 34.0853 200.822 33.9627 200.677 33.8623L199.752 33.2195H199.759V33.2158ZM200.119 32.6919L201.431 33.5985C201.602 33.7174 201.788 33.7955 201.985 33.8363C202.185 33.8735 202.386 33.8772 202.587 33.8363C202.787 33.7992 202.977 33.7286 203.155 33.6208C203.334 33.5131 203.482 33.3719 203.605 33.1935C203.754 32.9817 203.846 32.7736 203.88 32.5692C203.917 32.3686 203.906 32.1791 203.85 31.997C203.794 31.8186 203.698 31.6514 203.568 31.4954C203.434 31.3393 203.274 31.1981 203.085 31.0643L201.84 30.2023L200.119 32.6844V32.6919Z" fill="white"/>
</g>
<defs>
<clipPath id="clip0_59_2224">
<rect width="261" height="261" fill="white"/>
</clipPath>
</defs>
</svg>
