<svg width="28" height="16" viewBox="0 0 28 16" fill="none" xmlns="http://www.w3.org/2000/svg">
<path d="M0.999641 6.99987C0.447355 6.99987 -0.000358767 7.44759 -0.00035982 7.99987C-0.000359567 8.55216 0.447356 8.99987 0.99964 8.99987L0.999641 6.99987ZM27.602 8.70698C27.9925 8.31645 27.9925 7.68329 27.602 7.29276L21.238 0.928803C20.8475 0.538279 20.2143 0.538279 19.8238 0.928803C19.4333 1.31933 19.4333 1.95249 19.8238 2.34302L25.4807 7.99987L19.8238 13.6567C19.4333 14.0472 19.4333 14.6804 19.8238 15.0709C20.2143 15.4615 20.8475 15.4615 21.238 15.0709L27.602 8.70698ZM0.99964 8.99987H26.8949L26.8949 6.99987H0.999641L0.99964 8.99987Z" fill="#1D5429"/>
</svg>
