<svg width="192" height="192" viewBox="0 0 192 192" fill="none" xmlns="http://www.w3.org/2000/svg">
<circle cx="96" cy="96" r="96" fill="#1D5429"/>
<path d="M65.867 122.483C65.086 123.264 65.086 124.531 65.867 125.312C66.6481 126.093 67.9144 126.093 68.6955 125.312L65.867 122.483ZM125.897 67.2822C125.897 66.1777 125.001 65.2822 123.897 65.2822H105.897C104.792 65.2822 103.897 66.1777 103.897 67.2822C103.897 68.3868 104.792 69.2822 105.897 69.2822H121.897V85.2822C121.897 86.3868 122.792 87.2822 123.897 87.2822C125.001 87.2822 125.897 86.3868 125.897 85.2822V67.2822ZM68.6955 125.312L125.311 68.6964L122.482 65.868L65.867 122.483L68.6955 125.312Z" fill="white"/>
</svg>
