<svg width="16" height="111" viewBox="0 0 16 111" fill="none" xmlns="http://www.w3.org/2000/svg">
<path d="M9.19704 0.999756C9.19704 0.44747 8.74932 -0.000244351 8.19704 -0.000245741C7.64475 -0.000247111 7.19704 0.447468 7.19704 0.999754L9.19704 0.999756ZM7.48981 110.602C7.88034 110.993 8.5135 110.993 8.90403 110.602L15.268 104.238C15.6585 103.848 15.6585 103.214 15.268 102.824C14.8775 102.433 14.2443 102.433 13.8538 102.824L8.19692 108.481L2.54007 102.824C2.14955 102.433 1.51638 102.433 1.12586 102.824C0.735335 103.214 0.735334 103.847 1.12586 104.238L7.48981 110.602ZM7.19704 0.999754L7.19692 109.895H9.19692L9.19704 0.999756L7.19704 0.999754Z" fill="#EFEDE8"/>
</svg>
